<svg xmlns="http://www.w3.org/2000/svg" xmlns:xlink="http://www.w3.org/1999/xlink" width="500" zoomAndPan="magnify" viewBox="0 0 375 374.999991" height="500" preserveAspectRatio="xMidYMid meet" version="1.0"><defs><g/></defs><g fill="#8b7ac8" fill-opacity="0.4"><g transform="translate(89.74943, 268.701198)"><g><path d="M 69.835938 1.453125 C 94.777344 1.453125 123.460938 -13.925781 123.460938 -43.441406 L 123.460938 -146.949219 L 102.261719 -146.949219 L 102.261719 -43.648438 C 102.261719 -27.644531 85.007812 -19.539062 69.835938 -19.539062 C 54.457031 -19.539062 37.203125 -27.4375 37.203125 -43.441406 L 37.203125 -146.949219 L 16.003906 -146.949219 L 16.003906 -43.648438 C 16.003906 -13.925781 44.269531 1.453125 69.835938 1.453125 Z M 69.835938 1.453125 "/></g></g></g><g fill="#8b7ac8" fill-opacity="0.4"><g transform="translate(187.638833, 268.701198)"><g><path d="M 106.625 -20.992188 L 39.074219 -20.992188 L 39.074219 -63.808594 L 104.960938 -63.808594 L 104.960938 -85.007812 L 39.074219 -85.007812 L 39.074219 -125.957031 L 106.417969 -125.957031 L 106.417969 -146.949219 L 17.875 -146.949219 L 17.875 0 L 106.625 0 Z M 106.625 -20.992188 "/></g></g></g><g fill="#6e51d9" fill-opacity="1"><g transform="translate(80.563607, 259.515376)"><g><path d="M 69.835938 1.453125 C 94.777344 1.453125 123.460938 -13.925781 123.460938 -43.441406 L 123.460938 -146.949219 L 102.261719 -146.949219 L 102.261719 -43.648438 C 102.261719 -27.644531 85.007812 -19.539062 69.835938 -19.539062 C 54.457031 -19.539062 37.203125 -27.4375 37.203125 -43.441406 L 37.203125 -146.949219 L 16.003906 -146.949219 L 16.003906 -43.648438 C 16.003906 -13.925781 44.269531 1.453125 69.835938 1.453125 Z M 69.835938 1.453125 "/></g></g></g><g fill="#6e51d9" fill-opacity="1"><g transform="translate(178.45301, 259.515376)"><g><path d="M 106.625 -20.992188 L 39.074219 -20.992188 L 39.074219 -63.808594 L 104.960938 -63.808594 L 104.960938 -85.007812 L 39.074219 -85.007812 L 39.074219 -125.957031 L 106.417969 -125.957031 L 106.417969 -146.949219 L 17.875 -146.949219 L 17.875 0 L 106.625 0 Z M 106.625 -20.992188 "/></g></g></g></svg>