<svg xmlns="http://www.w3.org/2000/svg" xmlns:xlink="http://www.w3.org/1999/xlink" width="500" zoomAndPan="magnify" viewBox="0 0 375 374.999991" height="500" preserveAspectRatio="xMidYMid meet" version="1.0"><defs><g/><clipPath id="1c460146cd"><path d="M 135.441406 122.804688 L 146.691406 122.804688 L 146.691406 134.054688 L 135.441406 134.054688 Z M 135.441406 122.804688 " clip-rule="nonzero"/></clipPath><clipPath id="c4a6121a10"><path d="M 237.75 202.457031 L 249 202.457031 L 249 213.707031 L 237.75 213.707031 Z M 237.75 202.457031 " clip-rule="nonzero"/></clipPath></defs><g fill="#6e51d9" fill-opacity="1"><g transform="translate(108.266482, 228.374985)"><g><path d="M 18.878906 -117.074219 L 5.796875 -117.074219 L 5.796875 -42.390625 C 5.796875 -9.605469 38.582031 8.113281 68.222656 -2.484375 C 85.609375 -8.941406 94.71875 -24.011719 94.71875 -42.390625 L 94.71875 -117.074219 L 81.800781 -117.074219 C 92.730469 -102.832031 93.230469 -67.230469 93.230469 -42.390625 C 93.230469 -23.347656 83.789062 -9.605469 67.894531 -3.808594 C 41.234375 6.125 18.878906 -14.902344 18.878906 -42.390625 Z M 18.878906 -117.074219 "/></g></g></g><g fill="#6e51d9" fill-opacity="1"><g transform="translate(185.428106, 228.374985)"><g><path d="M 18.546875 -77.992188 C 23.347656 -58.453125 43.21875 -59.449219 52.824219 -48.519531 L 52.824219 -61.601562 C 30.136719 -61.601562 18.546875 -66.238281 18.546875 -88.921875 L 18.546875 -115.75 L 32.125 -115.75 C 52.328125 -115.75 60.9375 -114.921875 72.695312 -103.660156 L 72.695312 -116.910156 L 5.796875 -116.910156 L 5.796875 0 L 71.703125 0 L 75.511719 -24.507812 C 69.550781 -7.78125 60.9375 -1.324219 46.53125 -1.324219 L 18.546875 -1.324219 Z M 18.546875 -77.992188 "/></g></g></g><g clip-path="url(#1c460146cd)"><path fill="#d2ff58" d="M 141.175781 122.804688 C 138.128906 122.804688 135.65625 125.320312 135.65625 128.429688 C 135.65625 131.535156 138.128906 134.054688 141.175781 134.054688 C 144.226562 134.054688 146.695312 131.535156 146.695312 128.429688 C 146.695312 125.320312 144.226562 122.804688 141.175781 122.804688 Z M 130.140625 124.679688 C 128.105469 124.679688 126.460938 126.355469 126.460938 128.429688 C 126.460938 130.5 128.105469 132.179688 130.140625 132.179688 C 132.171875 132.179688 133.816406 130.5 133.816406 128.429688 C 133.816406 126.355469 132.171875 124.679688 130.140625 124.679688 Z M 130.140625 130.304688 C 129.121094 130.304688 128.300781 129.464844 128.300781 128.429688 C 128.300781 127.390625 129.121094 126.554688 130.140625 126.554688 C 131.15625 126.554688 131.980469 127.390625 131.980469 128.429688 C 131.980469 129.464844 131.15625 130.304688 130.140625 130.304688 Z M 130.140625 130.304688 " fill-opacity="1" fill-rule="nonzero"/></g><g clip-path="url(#c4a6121a10)"><path fill="#d2ff58" d="M 243.484375 202.457031 C 240.433594 202.457031 237.964844 204.972656 237.964844 208.082031 C 237.964844 211.1875 240.433594 213.707031 243.484375 213.707031 C 246.53125 213.707031 249.003906 211.1875 249.003906 208.082031 C 249.003906 204.972656 246.53125 202.457031 243.484375 202.457031 Z M 232.445312 204.332031 C 230.414062 204.332031 228.765625 206.007812 228.765625 208.082031 C 228.765625 210.152344 230.414062 211.832031 232.445312 211.832031 C 234.476562 211.832031 236.125 210.152344 236.125 208.082031 C 236.125 206.007812 234.476562 204.332031 232.445312 204.332031 Z M 232.445312 209.957031 C 231.429688 209.957031 230.605469 209.117188 230.605469 208.082031 C 230.605469 207.042969 231.429688 206.207031 232.445312 206.207031 C 233.460938 206.207031 234.285156 207.042969 234.285156 208.082031 C 234.285156 209.117188 233.460938 209.957031 232.445312 209.957031 Z M 232.445312 209.957031 " fill-opacity="1" fill-rule="nonzero"/></g></svg>