<svg viewBox="-6.88 0 357.246 357.246" xmlns="http://www.w3.org/2000/svg" fill="#000000"><g id="SVGRepo_bgCarrier" stroke-width="0"></g><g id="SVGRepo_tracerCarrier" stroke-linecap="round" stroke-linejoin="round"></g><g id="SVGRepo_iconCarrier"><defs><style>.a{fill:#ffffff;}.b{fill:#211715;}.c{fill:#b3b3b3;}.d{fill:#a08ae5;}.e{fill:#85807f;}</style></defs><path class="a" d="M171.221,173.6c-.96-.42-14.9-8.46-17.48-14.85-1.121-2.777-1.364-6.23-1.4-9.609,11.021-7.133,19.521-21.875,21.143-26.278a52.163,52.163,0,0,0,2.344-6.361l.653.11a8.829,8.829,0,0,0,6.812-1.966c4.262-3.487,6.029-8.35,7.109-11.529,1.523-4.488,1.619-11.743-.651-15.68-.76-1.319-2.527-3.566-6.681-3.712a8.017,8.017,0,0,0-5.794,2.121s5.309-46.428-49.858-46.428c-59.333,0-52.681,46.428-52.681,46.428a8.014,8.014,0,0,0-5.794-2.121c-4.153.146-5.92,2.393-6.681,3.712-2.27,3.937-2.174,11.192-.65,15.68,1.079,3.179,2.847,8.042,7.109,11.529a8.657,8.657,0,0,0,7.37,1.844,60.938,60.938,0,0,0,11.565,21.822,48.749,48.749,0,0,0,12.8,11.24c-.013,3.589-.2,7.336-1.41,10.318-2.59,6.39-14.34,13.31-15.3,13.73,0,0,4.117,29.818,40.562,29.818S171.221,173.6,171.221,173.6Z"></path><path class="b" d="M149.941,149.424c.074,4.05.3,8.588,2.553,12.1a28.387,28.387,0,0,0,6.077,6.416,78.321,78.321,0,0,0,7.327,5.294,33.729,33.729,0,0,0,4.112,2.44,2.472,2.472,0,0,0,3.284-.861,2.418,2.418,0,0,0-.861-3.283,31.834,31.834,0,0,1-3.712-2.185,70.892,70.892,0,0,1-6.292-4.423,43.067,43.067,0,0,1-3.306-2.91A20.773,20.773,0,0,1,156.9,159.5a11.245,11.245,0,0,1-.922-1.572c.261.549-.189-.52-.2-.564-.175-.52-.319-1.051-.442-1.586a30.91,30.91,0,0,1-.595-6.354c-.056-3.085-4.856-3.095-4.8,0Z"></path><path class="b" d="M84.953,175.676a28.878,28.878,0,0,0,3.958-2.42,58.674,58.674,0,0,0,6.77-5.239,21.891,21.891,0,0,0,5.235-6.48c1.766-3.729,1.916-8.028,1.935-12.083.015-3.089-4.785-3.093-4.8,0a44.235,44.235,0,0,1-.29,5.754,15.288,15.288,0,0,1-1.216,4.36,20.16,20.16,0,0,1-4.722,5.471,51.825,51.825,0,0,1-5.751,4.35,27.034,27.034,0,0,1-3.542,2.143,2.417,2.417,0,0,0-.861,3.283,2.456,2.456,0,0,0,3.284.861Z"></path><path class="c" d="M90.592,162.549a60.639,60.639,0,0,0-11.025,9.026L76.92,172.68c-11.408,4.759-25.942,10.746-37.072,16.122-3.425,1.655-8.344,3.223-11.314,5.6s-5.63,5.926-7.408,11.852c-6.181,20.6-13.832,80.74-18.721,148.3H203.648c-.02-11.124-.6-18.432-.6-28.293,0-7.544-.132-14.453.36-21.557l2.308,2.386c5.415,5.6,14.085,15.122,21.535,19.508a32.99,32.99,0,0,0,28.9,2.395c12.521-4.66,18.719-16.731,22.86-29.433,5.961-18.283,9.574-37.644,13.3-55.68-11.195-1.288-29.457-7.553-40.993-12.24-2.247,7.581-4.3,14.6-6.454,21.685-6.723-18.305-8.312-29.676-15.633-48.769a28.929,28.929,0,0,0-6.04-9.85c-2.59-2.78-6.61-3.56-10.03-5.22-11.13-5.37-25.67-11.36-37.08-16.12,0,0-.716-.3-1.941-.811a61.927,61.927,0,0,0-11.962-10c-4.983,21.36-13.835,44.417-20.852,65.2l-14.125,41.832c-6.28-15.57-10.432-26.049-15.762-41.832-7.017-20.78-15.869-43.837-20.852-65.2"></path><path class="a" d="M263.988,189.562c2.93-7.054,5.235-11.376,9.022-18.684.24-.462,1.922-2.807,3.517-3.268a4.1,4.1,0,0,1,4.091,1.053,5.307,5.307,0,0,1,1.668,3.8,50.023,50.023,0,0,1-2.235,14.653c8.494-1.14,25.5-9.214,34.573-14.008,2.18-1.151,4.348-2.47,6.795-2.816,2.526-.369,6.993,1.377,7.876,3.8,3.446-1.667,5.324-1.634,7.469-.818,2.548.972,3.3,1.989,3.8,3.43a6.187,6.187,0,0,1-.227,4.963,1.738,1.738,0,0,0-.224.693,1.444,1.444,0,0,0,.246.693,7.721,7.721,0,0,1-1.8,8.963,4.263,4.263,0,0,1-.453,5.006c-6.567,7.457-30.031,21.148-43.439,26.317a5.964,5.964,0,0,0-2.056,1.095,5.887,5.887,0,0,0-1.33,2.38c-.835,2.287-1.46,3.9-2.146,5.964-6.088-1.691-20.651-5.811-28.809-8.858a48.368,48.368,0,0,0,1.615-7.143l.155-1.823c-1.445-7.921-1.984-15.789,1.036-23.3Q263.57,190.568,263.988,189.562Z"></path><path class="b" d="M283.346,188.92c6.365-1.54,12.485-4.2,18.439-6.884q4.674-2.1,9.259-4.4c2.824-1.41,5.587-3.18,8.513-4.353a6.153,6.153,0,0,1,4.4-.338,7.474,7.474,0,0,1,2.081.957,4.185,4.185,0,0,1,.582.464c.02.019.4.439.274.28-.088-.108.23.426.088.083a2.455,2.455,0,0,0,3.525,1.434c1.755-.827,3.376-1.3,5.066-.77a6.135,6.135,0,0,1,2.161,1.116,1.919,1.919,0,0,1,.478.718c-.111-.234,0,.011.037.114a5.91,5.91,0,0,1,.272.953c.221,1.253-.413,2.092-.686,3.249-.315,1.335.4,2.266.7,3.427a5.444,5.444,0,0,1-1.195,4.879c-2.044,2.3,1.339,5.711,3.394,3.394a10.63,10.63,0,0,0,2.682-5.973,9.934,9.934,0,0,0-.119-2.955c-.167-.915-.685-1.716-.873-2.594V183a29.22,29.22,0,0,0,.911-3.375,8.691,8.691,0,0,0-.46-3.557,7.373,7.373,0,0,0-3.16-4.036,11.292,11.292,0,0,0-5.457-1.7,13.785,13.785,0,0,0-6.175,1.688l3.525,1.435c-1.362-3.285-4.824-5.061-8.226-5.509-4.017-.528-7.6,1.855-11.006,3.632-6.371,3.322-12.882,6.437-19.555,9.107a79.2,79.2,0,0,1-10.752,3.607c-3,.726-1.731,5.356,1.276,4.629Z"></path><path class="b" d="M341.271,192.289c-.414-3.07-4.21-4.237-6.829-3.709a17.247,17.247,0,0,0-4.044,1.775c-1.414.707-2.823,1.424-4.233,2.139-5.441,2.757-10.926,5.589-16.8,7.305-2.959.864-1.7,5.5,1.276,4.629a90.779,90.779,0,0,0,14.8-6.2c2.406-1.2,4.794-2.429,7.2-3.631.9-.45,2.062-1.326,3.086-1.385a4.022,4.022,0,0,1,.776.132s.346.231.219.137-.139-.423-.071.087a2.415,2.415,0,0,0,2.953,1.677,2.467,2.467,0,0,0,1.676-2.953Z"></path><path class="b" d="M341.323,180.351a6.1,6.1,0,0,0-4.578-1.753,10.065,10.065,0,0,0-4.332,1.24c-3.3,1.492-6.5,3.164-9.82,4.612-5.422,2.367-11.034,5.035-16.334,7.2a2.477,2.477,0,0,0-1.676,2.952,2.417,2.417,0,0,0,2.952,1.677c5.328-2.176,10.533-4.646,15.8-6.955,2.948-1.292,5.851-2.662,8.754-4.052,1.209-.58,2.419-1.21,3.666-1.7a2.37,2.37,0,0,1,2.171.174,2.42,2.42,0,0,0,3.394,0,2.449,2.449,0,0,0,0-3.394Z"></path><path class="b" d="M336.642,193.565c.439,1.614-1.044,2.669-2.115,3.655-1.184,1.089-2.555,2.205-3.7,3.076-3.556,2.691-7.3,5.137-11.1,7.469a171.514,171.514,0,0,1-24.174,12.655,26.808,26.808,0,0,0-3.527,1.481,7.607,7.607,0,0,0-3.055,4.275c-1.062,2.83-2.091,5.669-2.965,8.563-.895,2.963,3.736,4.23,4.628,1.276.793-2.626,1.727-5.195,2.674-7.768.374-1.017.583-1.979,1.632-2.453.961-.434,1.972-.776,2.944-1.185,4.225-1.779,8.346-3.793,12.4-5.934a164.6,164.6,0,0,0,24.13-15.127c3.537-2.745,8.254-6.145,6.865-11.259-.809-2.977-5.441-1.713-4.629,1.276Z"></path><path class="b" d="M264.921,216.983A60.394,60.394,0,0,1,263.4,201.5c.3-5.089,2.141-9.667,4.183-14.277,1.79-4.04,3.792-7.978,5.824-11.9.923-1.78,3.53-8.021,6-4.365a4.828,4.828,0,0,1,.44,3.111c-.053,1.341-.149,2.68-.3,4.014a44.389,44.389,0,0,1-1.886,8.66c-.945,2.948,3.688,4.211,4.629,1.276a50.3,50.3,0,0,0,1.981-9.281c.313-2.565.87-5.735.149-8.261a7.334,7.334,0,0,0-6.054-5.379c-2.652-.279-4.788,1.14-6.389,3.133a36.532,36.532,0,0,0-3.582,6.344c-1.144,2.22-2.272,4.449-3.343,6.707-2.442,5.144-5.105,10.525-6,16.19-1.105,6.963-.138,13.936,1.245,20.787a2.424,2.424,0,0,0,2.952,1.677,2.449,2.449,0,0,0,1.676-2.953Z"></path><path class="b" d="M328.084,172.019c-4.325,2.024-8.473,4.426-12.783,6.49-5.039,2.413-9.924,5.138-14.881,7.713-2.743,1.424-.318,5.568,2.422,4.145,4.957-2.575,9.843-5.3,14.882-7.714,4.31-2.063,8.458-4.465,12.782-6.489a2.42,2.42,0,0,0,.861-3.284,2.454,2.454,0,0,0-3.283-.861Z"></path><path class="b" d="M296.434,191.023q7.18,5.975,13.756,12.626a2.4,2.4,0,1,0,3.394-3.4q-6.567-6.643-13.756-12.625a2.454,2.454,0,0,0-3.394,0,2.428,2.428,0,0,0,0,3.394Z"></path><path class="b" d="M308.57,200.108c-2.805.059-5.607.2-8.4.426a34.428,34.428,0,0,0-7.987,1.222,17.209,17.209,0,0,0-10,8.652,2.461,2.461,0,0,0,.861,3.284,2.422,2.422,0,0,0,3.283-.861,12.456,12.456,0,0,1,7.856-6.665,35.824,35.824,0,0,1,6.705-.889c2.558-.2,5.12-.315,7.684-.369,3.084-.063,3.1-4.864,0-4.8Z"></path><path class="b" d="M259.539,216.777c-.019.216-.132.842.015-.02-.03.171-.052.344-.081.516-.07.406-.15.809-.237,1.211-.2.94-.436,1.872-.68,2.8-.456,1.739-.96,3.465-1.434,5.2a2.4,2.4,0,1,0,4.628,1.276c.986-3.6,2.251-7.244,2.589-10.985a2.408,2.408,0,0,0-2.4-2.4,2.463,2.463,0,0,0-2.4,2.4Z"></path><path class="a" d="M290.529,233.166c-5.288-1.46-24.141-6.715-32.246-10.042-.78,1.954-2.359,6.728-3.354,9.3l-.221.554c10.254,3.987,24.081,8.609,34.152,10.385l.062-.2c.985-3.144,2.406-8.755,2.738-9.688Z"></path><path class="b" d="M247.18,252.673c-5.139-14.038-8.446-28.641-13.413-42.734a66.5,66.5,0,0,0-4.684-11.325c-1.83-3.165-4.249-6.33-7.5-8.115a41.537,41.537,0,0,0-4.951-2.137c-1.628-.634-3.185-1.406-4.765-2.149-3.459-1.626-6.947-3.19-10.448-4.723-8.186-3.586-16.444-7-24.692-10.443a2.416,2.416,0,0,0-2.953,1.676,2.463,2.463,0,0,0,1.677,2.953c6.916,2.884,13.839,5.752,20.716,8.727,6.84,2.959,13.517,6.345,20.447,9.076a15.314,15.314,0,0,1,4.07,2.143,17.266,17.266,0,0,1,3.216,3.752,44.561,44.561,0,0,1,4.623,10.107c2.489,6.887,4.585,13.9,6.6,20.935,2.265,7.915,4.6,15.8,7.432,23.533a2.466,2.466,0,0,0,2.953,1.677,2.42,2.42,0,0,0,1.676-2.953Z"></path><path class="a" d="M129.025,171.791a.775.775,0,0,0-.2.206h-4.637a6,6,0,0,0-2.053-1.161c-10.565-4.25-19.38-10.732-23.241-15.921-3.808,3.5-5.018,6.209-7.495,10.953,5.086,20.413,13.392,42.169,20.047,61.878,5.329,15.783,9.482,26.262,15.761,41.831q7.063-20.915,14.126-41.831c6.688-19.806,15.043-41.681,20.123-62.182-2.371-4.557-3.61-7.224-7.337-10.649-3.86,5.189-12.675,11.671-23.24,15.921A9.142,9.142,0,0,0,129.025,171.791Z"></path><path class="a" d="M144.812,189.66a103.462,103.462,0,0,0,16-25.333c-1.984-3.828-3.318-6.309-6.7-9.412-3.86,5.189-12.675,11.671-23.24,15.921A6,6,0,0,0,128.823,172c-.253.471.239.885.471,1.256.363.581,2.148,2.074,5.185,5.407C137.925,182.442,141.96,186.253,144.812,189.66Z"></path><path class="a" d="M108.2,189.66a103.491,103.491,0,0,1-16-25.333c1.985-3.828,3.319-6.309,6.695-9.412,3.861,5.189,12.676,11.671,23.241,15.921A6,6,0,0,1,124.186,172c.253.471-.239.885-.47,1.256-.364.581-2.148,2.074-5.185,5.407C115.085,182.442,111.049,186.253,108.2,189.66Z"></path><path class="d" d="M129.454,174.993c-2.608.008-4.777.014-7.413.015-.864.857-2.04,2.039-3.51,3.652-.787.864-1.605,1.729-2.433,2.591.582,3.019.991,4.927,1.632,7.674.1.483.224.949.345,1.432a13.253,13.253,0,0,1,.518,3.175c0,.616-3.02,22.655-5.134,40.092,4.424,12.7,8.279,22.4,13.746,35.953l12.957-38.368c-2.658-17.775-5.471-36.349-5.454-37.332a19.332,19.332,0,0,1,1.242-5.625c.744-2.285,1.2-4.284,1.688-6.248-1.074-1.11-2.142-2.228-3.159-3.344-1.482-1.626-2.665-2.814-3.531-3.672Z"></path><path class="b" d="M119.326,195.785c4.969,0,9.938-.11,14.908-.112a2.4,2.4,0,0,0,0-4.8c-4.97,0-9.939.11-14.908.112a2.4,2.4,0,0,0,0,4.8Z"></path><path class="b" d="M114.018,183.093q.644,3.246,1.4,6.47a14.605,14.605,0,0,1,.758,4.184c-.1,1.482-.37,2.971-.563,4.444-.886,6.783-1.786,13.564-2.659,20.349q-.9,7-1.762,14.009a2.413,2.413,0,0,0,2.4,2.4,2.459,2.459,0,0,0,2.4-2.4c.991-8.115,2.041-16.223,3.1-24.329.625-4.764,1.471-9.555,1.866-14.345a13.876,13.876,0,0,0-.631-4.4c-.628-2.538-1.174-5.1-1.682-7.662a2.424,2.424,0,0,0-2.952-1.677,2.451,2.451,0,0,0-1.677,2.953Z"></path><path class="b" d="M130.664,172.594q-4.42.007-8.841.018a2.4,2.4,0,1,0,0,4.8q4.421-.007,8.841-.018a2.4,2.4,0,0,0,0-4.8Z"></path><path class="b" d="M142.474,230.559q-1.737-11.625-3.476-23.248-.64-4.321-1.266-8.644-.22-1.542-.433-3.083c-.025-.186.057.441-.006-.053-.019-.148-.039-.3-.058-.445-.033-.261-.072-.523-.094-.786a9.409,9.409,0,0,1,.459-3.278c.583-2.107,1.3-4.167,1.838-6.29.754-3-3.874-4.275-4.629-1.276-.852,3.385-2.635,6.99-2.5,10.536.058,1.48.371,2.978.577,4.443.9,6.405,1.873,12.8,2.83,19.2q1.064,7.1,2.127,14.2a2.416,2.416,0,0,0,2.952,1.676,2.46,2.46,0,0,0,1.676-2.952Z"></path><path class="b" d="M123.461,273.178a50.613,50.613,0,0,0-2.782,16.5c.073,3.537.459,7.083.683,10.612.682,10.781,1.125,21.572,1.876,32.35q.774,11.109,1.748,22.2a2.463,2.463,0,0,0,2.4,2.4,2.419,2.419,0,0,0,2.4-2.4c-1.86-21.156-2.784-42.353-4.23-63.534a44.907,44.907,0,0,1,2.534-16.858c.96-2.944-3.674-4.2-4.629-1.276Z"></path><path class="b" d="M159.868,161.911c-3.4,14.528-8.184,28.695-13.076,42.777q-7.478,21.522-14.76,43.1l-8.572,25.386c-.99,2.933,3.644,4.192,4.629,1.276q7.7-22.8,15.4-45.6c4.73-14.005,9.848-27.879,14.34-41.964,2.494-7.821,4.8-15.708,6.67-23.7.7-3.005-3.923-4.287-4.629-1.276Z"></path><path class="b" d="M160.971,164.621a55,55,0,0,1,10.09,8.2,56.188,56.188,0,0,1,4.583,5.121c.587.754,1.141,1.536,1.66,2.338.261.4.515.813.754,1.23q.153.265.3.535.107.2.207.4.169.345-.053-.174l.328-1.211q.254-.254-.111,0l-.646.357-.861.475-2.368,1.306-4.52,2.493a2.418,2.418,0,0,0-.486,3.769c2.22,2.011,4.43,4.033,6.573,6.126q.677.66,1.345,1.332a8.909,8.909,0,0,1,1.643,1.687c.091.2.118-.057-.031.291-.321.751-.785,1.478-1.17,2.2q-4.035,7.555-8.216,15.033c-5.742,10.293-11.642,20.5-17.619,30.655q-4.952,8.412-9.965,16.788c-1.589,2.658,2.559,5.074,4.144,2.422,12.585-21.053,25.033-42.212,36.547-63.875.832-1.565,1.542-3.1.944-4.889-.528-1.579-1.908-2.728-3.05-3.872-2.506-2.51-5.122-4.909-7.751-7.29l-.486,3.77,6.028-3.325c1.749-.965,4.406-1.885,4.528-4.237.081-1.571-1.04-3.14-1.863-4.41a45.375,45.375,0,0,0-2.985-4.025,61.093,61.093,0,0,0-15.069-13.352c-2.643-1.616-5.057,2.534-2.423,4.144Z"></path><path class="b" d="M88.278,163.187c3.405,14.528,8.185,28.695,13.077,42.778,4.723,13.6,9.24,27.282,14.3,40.759,2.8,7.458,5.759,14.853,8.736,22.241a2.475,2.475,0,0,0,2.952,1.676,2.415,2.415,0,0,0,1.676-2.952c-5.282-13.11-10.4-26.269-14.944-39.656-4.75-14-9.846-27.89-14.352-41.975-2.549-7.967-4.9-16-6.812-24.147-.7-3.006-5.334-1.734-4.629,1.276Z"></path><path class="b" d="M89.381,160.477a61.089,61.089,0,0,0-15.068,13.352,45.672,45.672,0,0,0-2.9,3.887c-.853,1.3-2.032,2.937-1.953,4.548.117,2.361,2.775,3.27,4.529,4.237l6.027,3.325-.486-3.77c-2.454,2.222-4.9,4.46-7.249,6.79a18.051,18.051,0,0,0-3.144,3.453,5.076,5.076,0,0,0,.113,5.01c2.655,5.313,5.675,10.476,8.607,15.64,6.281,11.061,12.82,21.974,19.453,32.828q5.508,9.015,11.093,17.983c1.626,2.619,5.78.212,4.144-2.422-12.589-20.274-25.138-40.611-36.539-61.584q-1.119-2.058-2.219-4.126a3.744,3.744,0,0,1-.472-.9c-.05-.308-.1.186.047-.136.277-.6,1.179-1.222,1.642-1.687,2.557-2.572,5.231-5.024,7.918-7.458a2.418,2.418,0,0,0-.486-3.769l-4.52-2.493L75.77,182l-1.077-.593c-.178-.1-.955-.724-.757-.354l.328,1.211c.016.383-.148.322.084-.09.1-.176.193-.356.293-.533q.353-.622.741-1.226c.511-.8,1.058-1.58,1.637-2.332A62.631,62.631,0,0,1,91.8,164.621c2.631-1.608.223-5.761-2.423-4.144Z"></path><path class="b" d="M146.509,191.357a109.671,109.671,0,0,0,12.858-18.7q1.314-2.456,2.512-4.971a17.533,17.533,0,0,0,1.248-2.718c.327-1.191-.451-2.264-.984-3.268a31.467,31.467,0,0,0-6.329-8.479,2.446,2.446,0,0,0-3.769.485c-4.025,5.338-10.918,9.6-17.06,12.668-2,1-4.088,1.762-6.09,2.731-2.092,1.012-3.315,2.98-1.836,5.134,1.56,2.271,3.865,4.1,5.723,6.121,3.4,3.7,7.087,7.155,10.333,11a2.42,2.42,0,0,0,3.394,0,2.45,2.45,0,0,0,0-3.394c-3.051-3.615-6.5-6.865-9.719-10.332-1.382-1.491-2.765-2.973-4.209-4.4-.389-.386-.773-.778-1.162-1.163-.156-.154-.5-.66-.008.043-.06-.084-.381-.633-.344-.472v1.276l.071-.276-.618,1.059c-.244.286.251-.17.433-.267s.373-.191.562-.277c.808-.364,1.642-.676,2.455-1.03q2.142-.933,4.222-2a69.957,69.957,0,0,0,7.382-4.372,44.011,44.011,0,0,0,10.616-9.621l-3.77.486a31.163,31.163,0,0,1,6.32,8.926v-2.423a109.915,109.915,0,0,1-15.625,24.848,2.466,2.466,0,0,0,0,3.394A2.42,2.42,0,0,0,146.509,191.357Z"></path><path class="b" d="M109.894,187.963A109.946,109.946,0,0,1,94.27,163.115v2.423a31.159,31.159,0,0,1,6.319-8.926l-3.769-.486a44.011,44.011,0,0,0,10.616,9.621,69.856,69.856,0,0,0,7.382,4.372q1.977,1.016,4.015,1.911c.812.356,1.638.681,2.451,1.035.263.114.517.226.773.362.163.087.721.606.432.267l-.617-1.059.07.276v-1.276c.037-.161-.284.388-.343.472.5-.7.148-.2-.008-.043-.39.385-.773.777-1.162,1.163-1.444,1.431-2.828,2.913-4.209,4.4-3.214,3.467-6.668,6.717-9.72,10.332a2.465,2.465,0,0,0,0,3.394,2.42,2.42,0,0,0,3.394,0c2.855-3.382,6.066-6.443,9.1-9.665,1.405-1.494,2.778-3.015,4.227-4.468.7-.7,1.459-1.372,2.1-2.135,1.372-1.644,1.985-3.831-.03-5.3-1.651-1.2-3.817-1.783-5.661-2.648a69.689,69.689,0,0,1-10.889-6.324,37.47,37.47,0,0,1-7.768-7.116,2.447,2.447,0,0,0-3.77-.485,31.505,31.505,0,0,0-6.328,8.479c-.487.916-1.173,1.87-1.027,2.949a10.624,10.624,0,0,0,1.2,2.845q1.245,2.61,2.6,5.163a109.671,109.671,0,0,0,12.858,18.7,2.42,2.42,0,0,0,3.394,0A2.451,2.451,0,0,0,109.894,187.963Z"></path><path class="b" d="M52.189,354.846c.016-9.94.585-19.866.6-29.806.017-11,.049-21.952-1.905-32.824q-5.524-30.735-9.465-61.732c-1.368-10.628-2.615-21.274-3.671-31.938a2.468,2.468,0,0,0-2.4-2.4,2.416,2.416,0,0,0-2.4,2.4c1.966,19.84,4.537,39.625,7.474,59.343q2.323,15.6,5.036,31.132a149.452,149.452,0,0,1,2.183,15.832c.364,5.367.373,10.749.359,16.126-.031,11.294-.594,22.574-.612,33.867-.005,3.088,4.795,3.093,4.8,0Z"></path><path class="b" d="M215.509,200.436c-1.956,19.661-4.521,39.264-7.489,58.8q-2.358,15.515-5.105,30.967a134.38,134.38,0,0,0-2,16.03c-.3,5.226-.287,10.463-.271,15.695.034,10.979.592,21.944.61,32.921,0,3.088,4.805,3.093,4.8,0-.016-9.535-.59-19.057-.6-28.59-.012-10.541-.258-21.148,1.523-31.579,3.521-20.626,6.9-41.246,9.6-62,1.4-10.729,2.664-21.476,3.735-32.242a2.417,2.417,0,0,0-2.4-2.4,2.452,2.452,0,0,0-2.4,2.4Z"></path><path class="b" d="M76.282,170.366q-22.075,9.207-43.841,19.057a22.668,22.668,0,0,0-8.175,5.766,27.862,27.862,0,0,0-5.181,9.554,107.471,107.471,0,0,0-2.842,11.281c-2.306,10.88-3.979,21.9-5.519,32.909C8.611,264.041,6.842,279.2,5.268,294.369Q2.51,320.96.518,347.622q-.262,3.463-.513,6.927a2.421,2.421,0,0,0,2.4,2.4,2.446,2.446,0,0,0,2.4-2.4q1.926-26.562,4.541-53.068c1.522-15.3,3.229-30.574,5.26-45.811,1.526-11.448,3.21-22.893,5.424-34.231.77-3.944,1.6-7.882,2.631-11.769,1.34-5.072,3.226-10.345,7.607-13.6,2.864-2.125,6.428-3.239,9.654-4.675,3.461-1.54,6.857-3.227,10.316-4.774,7.312-3.271,14.7-6.37,22.093-9.453q2.613-1.089,5.227-2.178a2.479,2.479,0,0,0,1.676-2.952,2.413,2.413,0,0,0-2.952-1.676Z"></path><path class="b" d="M143.467,283.1c.267.24.483.53.742.773q-.364-.481-.15-.185c.047.066.092.134.135.2.074.116.143.236.208.358.1.192.208.609-.024-.107.045.141.105.276.149.418a5.513,5.513,0,0,1,.183.834l-.086-.638a6.032,6.032,0,0,1,0,1.513l.086-.638a6.626,6.626,0,0,1-.173.838q-.049.176-.108.348c-.038.113-.231.587-.035.123s0-.018-.053.091-.11.208-.169.309-.117.185-.177.277c-.248.383.42-.482.141-.178-.1.107-.5.649-.644.625.016,0,.556-.389.188-.156-.059.038-.117.079-.177.116-.135.084-.274.163-.416.234-.063.033-.128.061-.192.093-.338.167.5-.184.228-.1-.136.044-.268.1-.406.139a6.952,6.952,0,0,1-1,.219l.638-.086a7.121,7.121,0,0,1-1.816.006l.638.086a8.3,8.3,0,0,1-1.4-.359c.724.232.394.172.209.081-.117-.058-.233-.12-.345-.187-.083-.05-.162-.105-.243-.158-.33-.212.512.441.129.1a8.719,8.719,0,0,1-.624-.622c-.283-.311.343.508-.006-.014-.067-.1-.13-.2-.189-.307s-.107-.208-.161-.312c-.187-.362.22.623.035.046a4.707,4.707,0,0,1-.171-.75l.086.638a5.2,5.2,0,0,1,0-1.3l-.086.638a6.1,6.1,0,0,1,.2-.906c.043-.14.093-.278.143-.417.162-.456-.243.5-.024.064a9.052,9.052,0,0,1,.46-.829c.08-.126.164-.249.251-.371a1.066,1.066,0,0,1,.133-.179c-.073.063-.394.477-.132.181.09-.1.177-.2.274-.3s.465-.391.1-.113.041-.019.14-.082q.2-.126.416-.234c.024-.012.173-.1.194-.093,0,0-.592.227-.273.117.139-.048.276-.1.416-.142a6.488,6.488,0,0,1,.983-.209l-.638.086a6.45,6.45,0,0,1,1.577,0l-.638-.086a6.2,6.2,0,0,1,.662.132c.091.024.18.051.269.08s.5.195.08.015c-.4-.171-.073-.028.019.018s.2.1.294.161.188.122.281.183c.338.221-.459-.377-.132-.095a2.559,2.559,0,0,0,1.7.7,2.4,2.4,0,0,0,1.7-4.1,7.636,7.636,0,0,0-4.905-1.866,8.111,8.111,0,0,0-4.511,1.236,8.607,8.607,0,0,0-3.607,8.656,7.446,7.446,0,0,0,3.058,4.352,8.368,8.368,0,0,0,11.584-2.63,8.382,8.382,0,0,0,.967-4.491,7.95,7.95,0,0,0-2.586-5.257,2.4,2.4,0,0,0-3.395,3.394Z"></path><path class="b" d="M291.236,243.8c.993-3.2,1.66-6.517,2.738-9.688a2.429,2.429,0,0,0-1.676-2.953c-8.695-2.4-17.386-4.852-25.953-7.681-2.5-.825-4.989-1.678-7.424-2.672-1.289-.526-2.525.591-2.953,1.676-1.208,3.066-2.173,6.223-3.353,9.3a2.417,2.417,0,0,0,1.676,2.952,2.454,2.454,0,0,0,2.952-1.676c1.18-3.077,2.146-6.234,3.354-9.3l-2.952,1.676c9.406,3.838,19.389,6.447,29.157,9.183q2.109.591,4.22,1.171l-1.676-2.952c-1.079,3.171-1.745,6.487-2.738,9.688-.918,2.957,3.714,4.221,4.628,1.276Z"></path><path class="b" d="M238.847,280.062c5.333-15.806,10.052-31.8,14.79-47.789l-2.952,1.676Q260.93,238.1,271.5,241.4a116.508,116.508,0,0,0,20.815,4.871L290,243.237c-2.278,11.032-4.434,22.092-7.04,33.054-1.336,5.618-2.788,11.211-4.432,16.748a119.041,119.041,0,0,1-4.7,13.605c-3.3,7.591-8.053,14.855-15.568,18.792a30.888,30.888,0,0,1-28.24-.05c-4.5-2.352-8.359-5.752-12.022-9.232s-7.09-7.145-10.587-10.766c-2.15-2.226-5.542,1.17-3.394,3.394,6.589,6.823,13.071,14.245,21.156,19.355a35.827,35.827,0,0,0,30.713,3.489c8.988-3.09,15.567-9.87,19.963-18.14,4.977-9.365,7.722-19.94,10.323-30.158,3.267-12.837,5.778-25.847,8.455-38.815a2.447,2.447,0,0,0-2.314-3.038c-6.6-.781-13.466-2.8-19.922-4.82q-10.359-3.245-20.433-7.335A2.426,2.426,0,0,0,249.009,231c-4.738,15.991-9.457,31.983-14.79,47.789-.99,2.933,3.645,4.192,4.628,1.276Z"></path><path class="e" d="M181.407,35.164a45.822,45.822,0,0,0-8.819-10.348L164.4,17.538c-10.614-11.827-24.721-15.1-38.626-15.1a63.017,63.017,0,0,0-39,12.821A56.94,56.94,0,0,0,75.778,26.711c-7.126,6.974-12.811,22.212-12.386,37.323a79.255,79.255,0,0,0,2.491,20.283,9.316,9.316,0,0,1,3.056-.588,8.014,8.014,0,0,1,5.794,2.121l2.3,1.61a85.754,85.754,0,0,1,1-9.211c1.066-6.475,7.785-9.46,10.64-15.24,1.645-3.329,2.624-7.221,5.437-9.59,2.119-1.784,4.946-2.389,7.673-2.676,4.224-.445,18.511.192,23.289,1.074,4.043.227,7.96,1.035,13.726,1.768,3.127.4,8.926,1.422,11.144,1.867,8.723,2.005,12.065,4.183,16.447,10.118,1.679,2.275,3.466,6.427,5.12,11.83l5.765,8.45a8.017,8.017,0,0,1,5.794-2.121,9.509,9.509,0,0,1,2.842.508c1.9-7.559,2.709-13.244,2.415-20.2C187.759,50.682,185.559,42.036,181.407,35.164Z"></path><path class="b" d="M117.464,128.968a20.66,20.66,0,0,0,9.954,2.3c3.551-.023,7.156-.714,10-2.932a2.412,2.412,0,0,0,0-3.394,2.462,2.462,0,0,0-3.394,0c.715-.557.114-.1-.07.019-.2.129-.41.249-.622.36-.155.082-.9.386-.279.154-.286.107-.568.218-.859.312a14.444,14.444,0,0,1-5.1.681,15.009,15.009,0,0,1-4.867-.655c-.314-.094-.621-.207-.931-.313-.1-.035-.2-.087-.3-.117.6.173.194.087.03.01-.385-.181-.764-.371-1.14-.569a2.453,2.453,0,0,0-3.284.861,2.426,2.426,0,0,0,.861,3.283Z"></path><path class="b" d="M126.3,105.393a47.537,47.537,0,0,1,1.111,5.084l-.086-.638a3.054,3.054,0,0,1,.019.7l.086-.638a1.788,1.788,0,0,1-.077.315l.242-.573a1.293,1.293,0,0,1-.112.2l.376-.486a1.036,1.036,0,0,1-.167.164l.486-.375a3.355,3.355,0,0,1-.4.213l.573-.242a2.986,2.986,0,0,1-.679.2l.638-.086a2.662,2.662,0,0,1-.637,0l.638.086c-.24-.034-.476-.092-.716-.124a2.649,2.649,0,0,0-1.849.241,2.4,2.4,0,0,0-.861,3.284,2.3,2.3,0,0,0,1.434,1.1c.528.071,1.041.206,1.578.23a5.007,5.007,0,0,0,2.3-.544,3.281,3.281,0,0,0,1.831-2.167,5.527,5.527,0,0,0-.024-2.357c-.277-1.638-.656-3.261-1.077-4.868a2.4,2.4,0,0,0-4.628,1.276Z"></path><path class="b" d="M99.109,91.051c-.849,2.759-.3,9.105,4.931,9.646,6.908-.042,7.276-7.715,4.95-11.323C107.086,86.42,101.488,85.192,99.109,91.051Z"></path><path class="b" d="M154.642,91.051c.85,2.759.3,9.106-4.93,9.646-6.909-.042-7.276-7.715-4.951-11.323C146.665,86.42,152.263,85.192,154.642,91.051Z"></path><path class="b" d="M76.43,84.153a11.1,11.1,0,0,0-12.2-1.72c-3,1.429-4.721,4.384-5.477,7.513-1.775,7.345.086,15.7,4.292,21.926,3.046,4.508,7.453,7.843,13.126,7.058a2.414,2.414,0,0,0,1.676-2.952,2.464,2.464,0,0,0-2.952-1.676c-3.194.442-5.954-2.309-7.6-4.7a27.627,27.627,0,0,1-3.467-7.419,22.427,22.427,0,0,1-.818-8.782,13.519,13.519,0,0,1,.909-3.937,8.68,8.68,0,0,1,.684-1.252c.087-.137.352-.449.1-.153.172-.2.354-.393.543-.579a4.454,4.454,0,0,1,1.405-.906,6.537,6.537,0,0,1,1.869-.427,5.86,5.86,0,0,1,4.518,1.4c2.283,2.072,5.688-1.312,3.394-3.394Z"></path><path class="b" d="M178.969,87.547a5.663,5.663,0,0,1,8.193.351c.318.33-.1-.185.137.163.131.194.259.389.376.591a11.159,11.159,0,0,1,1.2,3.772,24.16,24.16,0,0,1-3.453,16.082c-1.673,2.773-4.65,6.3-8.307,5.8a2.482,2.482,0,0,0-2.952,1.676,2.417,2.417,0,0,0,1.676,2.952c9.259,1.281,14.677-8,17.017-15.619a26.836,26.836,0,0,0,.676-11.986c-.522-3.237-1.887-6.34-4.643-8.252a11.011,11.011,0,0,0-13.314,1.08c-2.292,2.081,1.11,5.467,3.394,3.394Z"></path><path class="b" d="M174.477,112.1a67.112,67.112,0,0,1-3.512,10.637c.108-.28.108-.235-.072.151-.092.2-.182.4-.276.592-.243.509-.5,1.012-.761,1.511-.649,1.233-1.345,2.443-2.071,3.632a63.8,63.8,0,0,1-13.842,16.408,25.487,25.487,0,0,1-10.237,5.3c-3.009.693-1.736,5.322,1.276,4.629,7.756-1.786,14.208-7.469,19.267-13.355a69.6,69.6,0,0,0,10.789-16.3c.166-.368.323-.739.478-1.112.04-.1.324-.787.181-.451-.185.433.133-.284.135-.288.137-.311.267-.624.4-.938q.327-.786.625-1.583a50.65,50.65,0,0,0,2.252-7.563,2.459,2.459,0,0,0-1.676-2.952,2.423,2.423,0,0,0-2.952,1.676Z"></path><path class="b" d="M72.753,113.2a64.076,64.076,0,0,0,9.014,21.217c4.6,6.933,10.657,13.422,17.981,17.512a35.653,35.653,0,0,0,12.175,4.166,2.48,2.48,0,0,0,2.953-1.676,2.418,2.418,0,0,0-1.676-2.952C97.959,149.22,86.575,136.021,80.769,122.5a60.886,60.886,0,0,1-3.387-10.575c-.682-3.012-5.311-1.737-4.629,1.276Z"></path><path class="b" d="M166.1,15.841A47.7,47.7,0,0,0,138.771,1.134,72.151,72.151,0,0,0,106.83,2.58a62.3,62.3,0,0,0-26.848,15.5,56.94,56.94,0,0,0-5.668,6.565c-1.274,1.735-2.833,3.24-4.062,5.036a51.45,51.45,0,0,0-6.517,14.181,64.8,64.8,0,0,0-2.754,19.72,88.79,88.79,0,0,0,2.381,20.6c.765,2.991,5.4,1.723,4.629-1.276a76.183,76.183,0,0,1-2.172-17.2,66.273,66.273,0,0,1,1.452-16.436,53.4,53.4,0,0,1,5.263-14.139,31.463,31.463,0,0,1,3.482-5.153c.691-.808,1.448-1.531,2.073-2.393.8-1.105,1.652-2.165,2.553-3.192A56.415,56.415,0,0,1,104.667,8.3a67.175,67.175,0,0,1,29.558-3.008c10.93,1.219,21.039,5.734,28.479,13.946,2.078,2.294,5.464-1.109,3.394-3.394Z"></path><path class="b" d="M188.387,84.183a74.668,74.668,0,0,0,2.383-16.222,93.98,93.98,0,0,0-1.076-15.291c-1.065-7.363-3.278-14.649-7.57-20.8a52.294,52.294,0,0,0-7.839-8.75c-2.283-2.071-5.688,1.314-3.394,3.4,4.686,4.25,8.613,9.026,10.947,14.8,3.105,7.684,4.011,16.267,4.137,24.49a67.24,67.24,0,0,1-2.216,17.1c-.735,3,3.892,4.28,4.628,1.276Z"></path><path class="b" d="M125.708,49.5a95.3,95.3,0,0,0-12.49-1.121,74.245,74.245,0,0,0-11.827,0c-3.115.36-6.175,1.089-8.672,3.089-2.291,1.834-3.583,4.479-4.706,7.123a23.584,23.584,0,0,1-3.756,6.623c-1.631,1.863-3.489,3.518-5.051,5.443a16.483,16.483,0,0,0-3.7,8.3c-.48,3.2-.714,6.405-.968,9.626a2.421,2.421,0,0,0,2.4,2.4,2.448,2.448,0,0,0,2.4-2.4c.365-4.641.08-10.184,2.939-14.1,2.8-3.837,6.76-6.538,8.8-10.962,1.09-2.363,1.879-4.994,3.463-7.094,1.527-2.023,3.9-2.791,6.318-3.168a56.639,56.639,0,0,1,10.73-.148c2.465.093,4.928.226,7.387.417,1.117.086,2.233.184,3.346.306.2.022.407.045.611.07.107.012.913.121.37.044q.569.079,1.132.18a2.467,2.467,0,0,0,2.953-1.676,2.421,2.421,0,0,0-1.677-2.952Z"></path><path class="b" d="M149.3,57.766a38.71,38.71,0,0,1,7.452,2.344,15.614,15.614,0,0,1,4.963,3.577c3.865,3.985,5.83,9.018,7.476,14.351.908,2.942,5.543,1.687,4.628-1.276A58.86,58.86,0,0,0,169.9,66.718a28.314,28.314,0,0,0-4.789-6.425c-3.943-4.066-9.128-5.9-14.533-7.155-3-.7-4.288,3.929-1.276,4.628Z"></path><path class="b" d="M141.426,51.951c-.791-3.363-3.43-6.229-6.078-8.289a30.672,30.672,0,0,0-15.089-5.918,2.411,2.411,0,0,0-2.4,2.4,2.461,2.461,0,0,0,2.4,2.4,28.259,28.259,0,0,1,7.056,1.9c-.276-.114.343.152.4.177.273.124.544.254.812.387q.723.36,1.421.763.665.385,1.305.813.332.222.655.454c.078.056.594.442.222.155a19.486,19.486,0,0,1,2,1.779q.4.4.766.832c.137.158.269.321.4.483q.165.209-.108-.142.1.135.2.273a13.852,13.852,0,0,1,1.043,1.719c.061.123.109.256.175.376-.321-.586-.1-.274-.046-.086.082.269.175.529.239.8a2.4,2.4,0,0,0,4.629-1.276Z"></path></g></svg>