<svg width="140px" height="140px" viewBox="0 0 24 24" fill="none" xmlns="http://www.w3.org/2000/svg"><g id="SVGRepo_bgCarrier" stroke-width="0"></g><g id="SVGRepo_tracerCarrier" stroke-linecap="round" stroke-linejoin="round"></g><g id="SVGRepo_iconCarrier"> <path fill-rule="evenodd" clip-rule="evenodd" d="M10.6875 3.75C8.96439 3.75 7.5 5.23565 7.5 7.15385L7.5 15.4615C7.5 18.1444 9.55201 20.25 12 20.25C14.448 20.25 16.5 18.1444 16.5 15.4615V7.15385H18V15.4615C18 18.8963 15.351 21.75 12 21.75C8.649 21.75 6 18.8963 6 15.4615L6 7.15385C6 4.48383 8.06137 2.25 10.6875 2.25C13.3136 2.25 15.375 4.48383 15.375 7.15385V15.4615C15.375 17.3669 13.9013 18.9808 12 18.9808C10.0987 18.9808 8.625 17.3669 8.625 15.4615V7.15385H10.125V15.4615C10.125 16.615 11.0018 17.4808 12 17.4808C12.9982 17.4808 13.875 16.615 13.875 15.4615V7.15385C13.875 5.23565 12.4106 3.75 10.6875 3.75Z" fill="#080341"></path> </g></svg>