<svg xmlns="http://www.w3.org/2000/svg" xmlns:xlink="http://www.w3.org/1999/xlink" width="800" zoomAndPan="magnify" viewBox="0 0 600 599.999999" height="800" preserveAspectRatio="xMidYMid meet" version="1.0"><path fill="#656565" d="M 600.035156 300.03125 C 600.035156 465.71875 465.71875 600.035156 300.03125 600.035156 C 134.34375 600.035156 0.0273438 465.71875 0.0273438 300.03125 C 0.0273438 134.34375 134.34375 0.0273438 300.03125 0.0273438 C 465.71875 0.0273438 600.035156 134.34375 600.035156 300.03125 " fill-opacity="1" fill-rule="nonzero"/><path fill="#ffffff" d="M 448.035156 152.03125 C 433.53125 137.527344 410.019531 137.527344 395.519531 152.03125 L 300.03125 247.515625 L 204.546875 152.03125 C 190.046875 137.527344 166.53125 137.527344 152.03125 152.03125 C 137.527344 166.53125 137.527344 190.046875 152.03125 204.546875 L 247.515625 300.03125 L 152.03125 395.515625 C 137.527344 410.019531 137.527344 433.53125 152.03125 448.035156 C 166.53125 462.535156 190.046875 462.535156 204.546875 448.035156 L 300.03125 352.550781 L 395.519531 448.035156 C 410.019531 462.535156 433.53125 462.535156 448.035156 448.035156 C 462.535156 433.53125 462.535156 410.019531 448.035156 395.515625 L 352.550781 300.03125 L 448.035156 204.546875 C 462.535156 190.046875 462.535156 166.53125 448.035156 152.03125 " fill-opacity="1" fill-rule="nonzero"/></svg>