<svg xmlns="http://www.w3.org/2000/svg" xmlns:xlink="http://www.w3.org/1999/xlink" width="200" zoomAndPan="magnify" viewBox="0 0 150 149.999998" height="200" preserveAspectRatio="xMidYMid meet" version="1.0"><defs><filter x="0%" y="0%" width="100%" height="100%" id="5dd4aaffbe"><feColorMatrix values="0 0 0 0 1 0 0 0 0 1 0 0 0 0 1 0 0 0 1 0" color-interpolation-filters="sRGB"/></filter><g/><mask id="b7a4c5ea3f"><g filter="url(#5dd4aaffbe)"><rect x="-15" width="180" fill="#000000" y="-15" height="179.999997" fill-opacity="0.6275"/></g></mask><clipPath id="bf81688ad1"><path d="M 0.898438 0.730469 L 81.148438 0.730469 L 81.148438 80.980469 L 0.898438 80.980469 Z M 0.898438 0.730469 " clip-rule="nonzero"/></clipPath><clipPath id="b9b402362e"><rect x="0" width="82" y="0" height="82"/></clipPath></defs><rect x="-15" width="180" fill="#ffffff" y="-15" height="179.999997" fill-opacity="1"/><rect x="-15" width="180" fill="#ffffff" y="-15" height="179.999997" fill-opacity="1"/><rect x="-15" width="180" fill="#ffffff" y="-15" height="179.999997" fill-opacity="1"/><g mask="url(#b7a4c5ea3f)"><g transform="matrix(1, 0, 0, 1, 32, 18)"><g clip-path="url(#b9b402362e)"><g clip-path="url(#bf81688ad1)"><path fill="#000000" d="M 40.964844 0.730469 C 19.117188 0.730469 0.949219 18.75 0.941406 40.429688 C 0.933594 63.066406 18.648438 80.980469 41.035156 80.980469 C 63.117188 80.984375 81.066406 63.019531 81.09375 40.898438 C 81.117188 18.796875 63.074219 0.734375 40.964844 0.730469 Z M 73.257812 36.621094 C 73.242188 36.550781 73.238281 36.476562 73.222656 36.40625 C 73.109375 35.851562 72.621094 35.042969 72.957031 34.804688 C 73.4375 34.464844 74.097656 35.09375 74.683594 35.292969 C 75.085938 35.429688 75.445312 35.699219 75.84375 35.859375 C 76.417969 36.097656 76.78125 36.421875 76.503906 37.050781 C 76.394531 39.839844 76.109375 42.5625 75.496094 45.242188 C 75.441406 45.484375 75.316406 45.722656 75.308594 45.96875 C 75.292969 46.417969 74.953125 46.550781 74.660156 46.542969 C 74.21875 46.53125 74.390625 46.097656 74.386719 45.859375 C 74.375 42.734375 73.914062 39.667969 73.257812 36.621094 Z M 22.378906 68.835938 C 22.421875 68.738281 22.46875 68.644531 22.511719 68.550781 C 24.269531 68.796875 26.03125 69.042969 28.074219 69.332031 C 26.726562 69.761719 25.660156 70.269531 24.542969 70.414062 C 23.4375 70.554688 23.105469 69.371094 22.378906 68.835938 Z M 23.875 72.644531 C 24.507812 73.644531 25.195312 74.609375 26.007812 75.808594 C 24.332031 75.15625 23.003906 74.445312 21.671875 73.734375 C 21.160156 73.457031 21.21875 73.160156 21.554688 72.804688 C 21.699219 72.644531 21.847656 72.484375 22.011719 72.34375 C 23.085938 71.425781 23.117188 71.449219 23.875 72.644531 Z M 22.664062 68.066406 C 22.207031 67.980469 22.003906 67.738281 21.855469 67.324219 C 20.683594 64.039062 19.964844 60.652344 19.585938 57.191406 C 19.460938 56.078125 19.429688 54.953125 19.316406 53.835938 C 19.253906 53.230469 19.394531 52.917969 20.066406 52.820312 C 21.636719 52.59375 23.207031 52.339844 24.753906 51.988281 C 25.558594 51.804688 25.753906 52.199219 25.890625 52.800781 C 26.417969 55.1875 27.128906 57.523438 27.921875 59.832031 C 28.820312 62.457031 29.84375 65.035156 31.101562 67.515625 C 31.714844 68.722656 31.699219 68.730469 30.390625 68.976562 C 30.214844 69.011719 30.035156 69.039062 29.898438 69.066406 C 27.453125 68.761719 25.046875 68.519531 22.664062 68.066406 Z M 7.605469 35.894531 C 7.679688 37.8125 7.753906 39.730469 8.109375 41.625 C 8.402344 43.1875 8.71875 44.746094 9.007812 46.308594 C 9.050781 46.542969 9.320312 46.800781 9.082031 47.011719 C 8.867188 47.199219 8.621094 47.011719 8.390625 46.90625 C 7.671875 46.582031 6.949219 46.257812 6.214844 45.964844 C 5.578125 45.714844 5.308594 45.285156 5.476562 44.609375 C 5.660156 41.769531 5.957031 38.945312 6.582031 36.164062 C 6.613281 36.023438 6.703125 35.902344 6.738281 35.761719 C 6.816406 35.433594 7.011719 35.222656 7.34375 35.269531 C 7.699219 35.324219 7.597656 35.664062 7.605469 35.894531 Z M 8.058594 32.570312 C 7.976562 30.445312 9.152344 28.539062 10.023438 26.535156 C 10.183594 26.164062 10.410156 26.109375 10.796875 26.296875 C 13.992188 27.863281 17.394531 28.78125 20.863281 29.503906 C 21.125 29.558594 21.691406 29.402344 21.609375 30.027344 C 21.550781 30.496094 21.503906 30.894531 20.851562 31.011719 C 17.707031 31.578125 14.5625 32.144531 11.511719 33.128906 C 10.691406 33.394531 9.835938 33.585938 9.066406 33.957031 C 8.085938 34.429688 7.96875 34 8.054688 33.183594 C 8.070312 33.039062 8.058594 32.894531 8.058594 32.570312 Z M 59.570312 13.242188 C 57.785156 12.984375 56.058594 12.730469 54.335938 12.480469 C 54.335938 12.421875 54.339844 12.363281 54.34375 12.304688 C 55.296875 11.996094 56.246094 11.679688 57.203125 11.386719 C 57.980469 11.148438 58.957031 11.898438 59.570312 13.242188 Z M 58.070312 9.027344 C 57.460938 8.070312 56.800781 7.144531 56.035156 6.011719 C 57.734375 6.613281 59.113281 7.363281 60.480469 8.140625 C 60.816406 8.328125 60.785156 8.59375 60.535156 8.851562 C 60.410156 8.984375 60.300781 9.128906 60.167969 9.253906 C 59.035156 10.355469 58.894531 10.328125 58.070312 9.027344 Z M 59.25 13.683594 C 59.765625 13.769531 59.980469 14 60.144531 14.453125 C 61.367188 17.835938 62.078125 21.328125 62.453125 24.894531 C 62.5625 25.9375 62.589844 26.988281 62.699219 28.03125 C 62.753906 28.566406 62.566406 28.847656 62.046875 28.9375 C 60.34375 29.238281 58.636719 29.527344 56.9375 29.859375 C 56.238281 30 56.246094 29.449219 56.164062 29.09375 C 55.585938 26.644531 54.871094 24.238281 54.054688 21.863281 C 53.15625 19.242188 52.128906 16.675781 50.871094 14.203125 C 50.246094 12.96875 50.285156 12.917969 51.621094 12.832031 C 51.945312 12.808594 52.273438 12.800781 52.578125 12.789062 C 54.828125 12.996094 57.042969 13.308594 59.25 13.683594 Z M 68.414062 27.164062 C 67.003906 27.601562 65.585938 28.015625 64.171875 28.449219 C 63.308594 28.710938 63.164062 28.375 63.128906 27.671875 C 62.96875 24.449219 62.511719 21.265625 61.730469 18.136719 C 61.40625 16.851562 61 15.585938 60.632812 14.3125 C 62.140625 15.414062 63.242188 16.839844 64.328125 18.273438 C 66.117188 20.648438 67.617188 23.207031 68.988281 25.84375 C 69.398438 26.636719 69.234375 26.910156 68.414062 27.164062 Z M 69.796875 27.613281 C 70.601562 29.53125 71.40625 31.445312 71.976562 33.671875 C 69.125 32.789062 66.480469 32.03125 63.75 31.613281 C 63.511719 31.578125 63.371094 31.457031 63.289062 31.226562 C 62.84375 30.015625 63.320312 29.089844 64.585938 28.78125 C 66.054688 28.421875 67.496094 27.96875 68.914062 27.4375 C 69.234375 27.316406 69.578125 27.09375 69.796875 27.613281 Z M 62.757812 34.636719 C 62.480469 39.707031 61.710938 44.691406 60.484375 49.613281 C 60.289062 50.40625 59.710938 50.554688 59.121094 50.515625 C 58.476562 50.472656 58.71875 49.835938 58.71875 49.464844 C 58.730469 43.566406 58.03125 37.746094 56.78125 31.988281 C 56.648438 31.382812 56.6875 30.957031 57.550781 31.109375 C 59.105469 31.390625 60.675781 31.574219 62.238281 31.792969 C 62.722656 31.859375 62.777344 32.167969 62.761719 32.574219 C 62.742188 33.261719 62.757812 33.949219 62.757812 34.636719 Z M 59.339844 51.914062 C 59.097656 51.835938 58.675781 51.976562 58.746094 51.503906 C 58.820312 50.996094 59.253906 50.96875 59.65625 50.949219 C 59.902344 50.941406 60.085938 51.015625 60.011719 51.34375 C 59.878906 51.625 59.890625 52.09375 59.339844 51.914062 Z M 59.558594 52.882812 C 59.34375 53.480469 59.136719 54.085938 58.925781 54.683594 C 58.855469 54.679688 58.78125 54.675781 58.710938 54.671875 C 58.710938 54.027344 58.710938 53.382812 58.710938 52.734375 C 58.710938 52.398438 58.863281 52.296875 59.1875 52.390625 C 59.445312 52.46875 59.691406 52.519531 59.558594 52.882812 Z M 44.339844 50.535156 C 43.570312 50.558594 43.6875 50.007812 43.71875 49.558594 C 43.902344 46.667969 43.941406 43.769531 44.140625 40.871094 C 44.140625 37.972656 44.15625 35.078125 44.128906 32.179688 C 44.121094 31.535156 44.292969 31.335938 44.964844 31.289062 C 47.703125 31.105469 50.460938 31.121094 53.183594 30.710938 C 53.324219 30.6875 53.472656 30.703125 53.617188 30.699219 C 55.855469 30.667969 56.003906 30.75 56.464844 32.914062 C 57.1875 36.332031 57.605469 39.796875 57.933594 43.277344 C 58.136719 45.40625 57.984375 47.550781 58.316406 49.664062 C 58.445312 50.496094 58.042969 50.679688 57.304688 50.796875 C 52.960938 51.5 48.664062 50.410156 44.339844 50.535156 Z M 50.070312 51.222656 C 48.164062 51.496094 46.265625 51.742188 44.351562 51.648438 C 44.089844 51.632812 43.710938 51.753906 43.726562 51.28125 C 43.738281 50.910156 44.042969 50.9375 44.285156 50.949219 C 46.214844 51.035156 48.140625 51.128906 50.070312 51.222656 Z M 43.332031 49.636719 C 43.34375 50.308594 43.085938 50.523438 42.429688 50.488281 C 41.382812 50.433594 40.328125 50.410156 39.28125 50.46875 C 38.53125 50.507812 38.273438 50.292969 38.285156 49.511719 C 38.328125 46.609375 38.726562 35.015625 38.695312 32.113281 C 38.691406 31.488281 38.894531 31.292969 39.503906 31.320312 C 40.519531 31.363281 41.535156 31.394531 42.546875 31.320312 C 43.441406 31.257812 43.742188 31.523438 43.703125 32.457031 C 43.492188 37.09375 43.652344 41.738281 43.378906 46.375 C 43.316406 47.460938 43.3125 48.550781 43.332031 49.636719 Z M 36.917969 50.546875 C 33.738281 50.648438 30.558594 50.824219 27.382812 51.007812 C 26.269531 51.074219 25.863281 50.609375 25.632812 49.515625 C 24.496094 44.09375 24.003906 38.605469 23.722656 33.085938 C 23.621094 31.027344 23.65625 31.15625 25.679688 30.875 C 27.757812 30.585938 29.789062 30.832031 31.839844 30.941406 C 33.554688 31.03125 35.628906 31.203125 37.40625 31.289062 C 37.6875 31.304688 37.910156 31.535156 37.910156 31.820312 L 37.910156 49.445312 C 37.921875 50.207031 37.769531 50.519531 36.917969 50.546875 Z M 37.273438 51.644531 C 35.453125 51.566406 33.636719 51.476562 31.820312 51.390625 C 31.820312 51.324219 31.820312 51.261719 31.820312 51.195312 C 33.644531 51.113281 35.46875 51.023438 37.292969 50.949219 C 37.519531 50.941406 37.835938 50.875 37.863281 51.253906 C 37.898438 51.714844 37.539062 51.65625 37.273438 51.644531 Z M 19.183594 51.226562 C 19.121094 50.867188 19.03125 50.382812 19.722656 50.492188 C 20.921875 50.679688 22.128906 50.839844 23.332031 51.011719 C 23.859375 51.085938 24.386719 51.167969 24.910156 51.246094 C 24.921875 51.3125 24.933594 51.375 24.945312 51.441406 C 23.167969 51.785156 21.398438 52.214844 19.601562 52.417969 C 18.902344 52.5 19.253906 51.652344 19.183594 51.226562 Z M 24.292969 50.652344 C 22.859375 50.328125 21.390625 50.136719 19.929688 49.976562 C 19.214844 49.898438 19.140625 49.558594 19.214844 48.972656 C 19.296875 48.328125 19.316406 47.675781 19.363281 47.023438 C 19.523438 41.980469 20.308594 37.03125 21.523438 32.140625 C 21.714844 31.367188 22.179688 31.277344 22.777344 31.316406 C 23.464844 31.359375 23.226562 31.957031 23.261719 32.316406 C 23.457031 34.1875 23.347656 36.070312 23.503906 37.953125 C 23.835938 41.910156 24.367188 45.828125 25.1875 49.707031 C 25.375 50.597656 25.320312 50.886719 24.292969 50.652344 Z M 22.90625 29.425781 C 22.492188 29.375 22.339844 29.164062 22.484375 28.761719 C 22.695312 28.171875 22.90625 27.582031 23.117188 26.988281 C 23.1875 27.007812 23.257812 27.027344 23.328125 27.046875 C 23.328125 27.652344 23.332031 28.261719 23.328125 28.867188 C 23.324219 29.148438 23.367188 29.480469 22.90625 29.425781 Z M 22.632812 29.824219 C 22.945312 29.855469 23.210938 29.914062 23.199219 30.308594 C 23.183594 30.800781 22.820312 30.753906 22.5 30.753906 C 22.253906 30.753906 21.9375 30.816406 22.007812 30.402344 C 22.0625 30.066406 22.191406 29.78125 22.632812 29.824219 Z M 37.664062 30.78125 C 35.722656 30.824219 33.792969 30.628906 31.863281 30.371094 C 33.808594 30.355469 35.738281 30.125 37.675781 30.054688 C 37.941406 30.042969 38.3125 29.960938 38.304688 30.421875 C 38.296875 30.867188 37.933594 30.773438 37.664062 30.78125 Z M 42.753906 51.648438 C 42.066406 51.652344 41.382812 51.652344 40.695312 51.652344 C 40.695312 51.648438 40.695312 51.648438 40.695312 51.644531 C 40.046875 51.644531 39.398438 51.652344 38.75 51.644531 C 38.523438 51.640625 38.3125 51.589844 38.3125 51.292969 C 38.3125 51 38.523438 50.941406 38.75 50.941406 C 40.085938 50.9375 41.417969 50.9375 42.753906 50.941406 C 42.976562 50.941406 43.199219 50.988281 43.1875 51.285156 C 43.179688 51.558594 42.996094 51.648438 42.753906 51.648438 Z M 43.132812 52.988281 C 42.9375 56.421875 42.773438 59.859375 42.578125 63.289062 C 42.496094 64.699219 42.332031 66.101562 42.257812 67.511719 C 42.234375 68.011719 42.097656 68.242188 41.570312 68.199219 C 41.175781 68.167969 40.777344 68.195312 40.378906 68.195312 C 38.550781 68.195312 38.527344 68.195312 38.503906 66.3125 C 38.480469 64.210938 38.304688 55.449219 38.273438 53.167969 C 38.261719 52.496094 38.402344 52.175781 39.15625 52.21875 C 40.238281 52.285156 41.328125 52.265625 42.414062 52.230469 C 42.992188 52.214844 43.164062 52.429688 43.132812 52.988281 Z M 39.269531 30.054688 C 39.957031 30.050781 40.640625 30.050781 41.328125 30.050781 C 41.328125 30.050781 41.328125 30.050781 41.328125 30.046875 C 41.902344 30.046875 42.480469 30.039062 43.058594 30.050781 C 43.324219 30.058594 43.683594 29.976562 43.671875 30.4375 C 43.664062 30.78125 43.402344 30.820312 43.140625 30.839844 C 41.84375 30.933594 40.546875 30.910156 39.25 30.8125 C 39.03125 30.796875 38.804688 30.769531 38.785156 30.476562 C 38.765625 30.128906 38.992188 30.054688 39.269531 30.054688 Z M 44.171875 30.375 C 44.210938 29.996094 44.519531 30.042969 44.75 30.078125 C 46.390625 30.3125 48.042969 30.246094 49.683594 30.378906 C 48.046875 30.875 46.390625 30.710938 44.746094 30.792969 C 44.464844 30.808594 44.128906 30.820312 44.171875 30.375 Z M 62.757812 31.179688 C 62.695312 31.546875 62.355469 31.28125 62.128906 31.25 C 60.324219 30.980469 58.523438 30.71875 56.453125 30.414062 C 58.503906 30.039062 60.296875 29.707031 62.09375 29.386719 C 62.320312 29.347656 62.675781 29.21875 62.726562 29.570312 C 62.804688 30.101562 62.839844 30.65625 62.757812 31.179688 Z M 55.691406 29.191406 C 55.84375 29.785156 55.628906 30.09375 55 30.09375 C 54.566406 30.089844 54.132812 30.089844 53.699219 30.089844 C 50.738281 29.957031 47.792969 29.585938 44.824219 29.671875 C 44.304688 29.6875 44.128906 29.496094 44.136719 28.980469 C 44.21875 24.085938 44 19.195312 43.890625 14.304688 C 43.875 13.675781 44.097656 13.519531 44.695312 13.488281 C 46.171875 13.414062 47.648438 13.289062 49.117188 13.113281 C 49.609375 13.054688 49.835938 13.207031 50.039062 13.609375 C 52.566406 18.570312 54.316406 23.8125 55.691406 29.191406 Z M 44.421875 13.109375 C 44.105469 13.15625 43.839844 13.085938 43.824219 12.679688 C 43.808594 12.253906 44.097656 12.226562 44.402344 12.242188 C 45.941406 12.316406 47.476562 12.402344 49.011719 12.484375 C 47.515625 13.035156 45.945312 12.886719 44.421875 13.109375 Z M 48.539062 12.023438 C 47.058594 11.964844 45.582031 11.882812 44.101562 11.804688 C 43.835938 11.792969 43.730469 11.636719 43.714844 11.386719 C 43.566406 9.160156 43.414062 6.933594 43.246094 4.46875 C 45.683594 6.585938 47.367188 8.953125 48.824219 11.5 C 49.054688 11.90625 48.925781 12.042969 48.539062 12.023438 Z M 42.871094 13.121094 C 42.402344 13.121094 41.9375 13.121094 41.46875 13.121094 C 41.46875 13.125 41.46875 13.125 41.46875 13.128906 C 41.109375 13.128906 40.75 13.140625 40.390625 13.125 C 40.152344 13.113281 39.839844 13.15625 39.886719 12.757812 C 39.914062 12.507812 39.953125 12.21875 40.289062 12.214844 C 41.1875 12.207031 42.085938 12.214844 42.984375 12.230469 C 43.261719 12.234375 43.3125 12.441406 43.324219 12.679688 C 43.347656 13.015625 43.164062 13.121094 42.871094 13.121094 Z M 40.683594 13.589844 C 40.789062 13.605469 40.898438 13.601562 41.007812 13.601562 C 43.445312 13.621094 43.46875 13.621094 43.519531 16.144531 C 43.554688 18.066406 43.6875 26.480469 43.726562 28.761719 C 43.742188 29.535156 43.414062 29.664062 42.75 29.625 C 41.703125 29.558594 40.652344 29.542969 39.605469 29.570312 C 39.011719 29.589844 38.851562 29.371094 38.878906 28.816406 C 38.996094 26.425781 39.054688 24.035156 39.203125 21.648438 C 39.351562 19.226562 39.601562 16.8125 39.75 14.390625 C 39.792969 13.699219 40.054688 13.492188 40.683594 13.589844 Z M 38.664062 13.117188 C 36.734375 12.988281 34.808594 12.839844 32.878906 12.699219 C 32.890625 12.617188 32.902344 12.53125 32.914062 12.449219 C 34.820312 12.367188 36.722656 12.273438 38.628906 12.207031 C 38.933594 12.199219 39.402344 12.019531 39.414062 12.636719 C 39.429688 13.226562 39 13.136719 38.664062 13.117188 Z M 38.554688 13.523438 C 39.054688 13.523438 39.34375 13.589844 39.296875 14.25 C 38.964844 19.089844 38.667969 23.9375 38.378906 28.78125 C 38.347656 29.320312 38.269531 29.667969 37.605469 29.65625 C 34.492188 29.601562 31.394531 29.828125 28.8125 30.085938 C 26.949219 30.148438 25.644531 29.773438 24.316406 29.664062 C 23.542969 29.597656 23.835938 29.058594 23.800781 28.617188 C 23.414062 23.523438 26.222656 19.539062 28.324219 15.292969 C 29.285156 13.347656 30.414062 12.390625 32.734375 13.019531 C 34.605469 13.527344 36.597656 13.527344 38.554688 13.523438 Z M 24.476562 21.777344 C 24.230469 20.546875 24.644531 19.363281 24.839844 18.1875 C 25.082031 16.742188 25.542969 15.335938 25.859375 13.902344 C 25.988281 13.3125 26.242188 13.035156 26.867188 13.042969 C 27.617188 13.054688 28.351562 12.714844 29.289062 12.929688 C 27.441406 15.84375 25.902344 18.765625 24.476562 21.777344 Z M 26.320312 10.914062 C 26.160156 11.269531 25.851562 11.207031 25.578125 11.097656 C 24.917969 10.832031 24.207031 10.679688 23.578125 10.179688 C 24.847656 9.1875 26.128906 8.292969 27.828125 7.449219 C 27.242188 8.796875 26.789062 9.859375 26.320312 10.914062 Z M 23.585938 10.765625 C 24.105469 11.015625 24.652344 11.203125 25.175781 11.4375 C 25.480469 11.574219 25.980469 11.527344 25.910156 12.058594 C 25.847656 12.554688 25.488281 12.761719 25.015625 12.839844 C 23.59375 13.070312 22.175781 13.332031 20.753906 13.550781 C 20.375 13.609375 20.023438 13.910156 19.421875 13.621094 C 20.527344 12.660156 21.550781 11.765625 22.582031 10.878906 C 22.882812 10.621094 23.207031 10.582031 23.585938 10.765625 Z M 25.148438 13.292969 C 25.242188 13.28125 25.347656 13.347656 25.480469 13.390625 C 24.460938 16.898438 23.914062 20.472656 23.488281 24.082031 C 23.300781 25.699219 22.519531 27.242188 22.003906 28.820312 C 21.890625 29.171875 21.664062 29.195312 21.324219 29.125 C 17.855469 28.414062 14.4375 27.554688 11.21875 26.015625 C 10.628906 25.734375 10.523438 25.515625 10.851562 24.914062 C 12.847656 21.246094 15.316406 17.925781 18.160156 14.882812 C 18.332031 14.703125 18.542969 14.496094 18.765625 14.445312 C 20.878906 13.96875 22.992188 13.519531 25.148438 13.292969 Z M 11.011719 23.566406 C 10.796875 23.9375 10.601562 24.324219 10.371094 24.691406 C 10.222656 24.921875 10.230469 25.390625 9.726562 25.171875 C 9.304688 24.992188 9.242188 24.683594 9.363281 24.289062 C 9.613281 23.460938 9.84375 22.628906 10.113281 21.804688 C 10.300781 21.222656 10.59375 20.671875 10.742188 20.078125 C 11.582031 16.652344 13.984375 15.222656 17.421875 14.925781 C 14.886719 17.597656 12.789062 20.460938 11.011719 23.566406 Z M 9.414062 25.550781 C 9.628906 25.644531 9.871094 25.730469 9.671875 26.082031 C 9.382812 26.585938 9.238281 27.171875 8.800781 27.65625 C 8.550781 26.980469 8.941406 26.429688 8.972656 25.847656 C 8.988281 25.617188 9.148438 25.4375 9.414062 25.550781 Z M 8.050781 35.730469 C 8.046875 35.292969 7.996094 34.875 8.539062 34.667969 C 12.4375 33.164062 16.496094 32.296875 20.613281 31.574219 C 21.117188 31.515625 21.214844 31.75 21.082031 32.21875 C 20.046875 35.988281 19.453125 39.839844 19.070312 43.722656 C 18.898438 45.449219 18.847656 47.191406 18.785156 48.925781 C 18.765625 49.515625 18.65625 49.789062 17.980469 49.644531 C 15.488281 49.109375 13.015625 48.515625 10.585938 47.742188 C 10.0625 47.574219 9.726562 47.328125 9.585938 46.761719 C 8.691406 43.136719 8.082031 39.476562 8.050781 35.730469 Z M 18.121094 50.136719 C 18.96875 50.273438 18.785156 50.945312 18.753906 51.484375 C 18.726562 51.988281 19.046875 52.59375 18.121094 52.816406 C 16.410156 53.226562 14.734375 53.800781 13.058594 54.347656 C 12.652344 54.480469 12.378906 54.542969 12.183594 54.089844 C 11.359375 52.183594 10.589844 50.257812 10.019531 48.109375 C 12.773438 48.9375 15.40625 49.707031 18.121094 50.136719 Z M 14.652344 54.238281 C 15.679688 53.917969 16.730469 53.660156 17.757812 53.335938 C 18.476562 53.109375 18.800781 53.144531 18.859375 54.074219 C 19.089844 57.898438 19.644531 61.679688 20.742188 65.363281 C 20.964844 66.113281 21.207031 66.855469 21.441406 67.601562 C 18.125 64.453125 15.578125 60.839844 13.53125 56.871094 C 12.527344 54.925781 12.546875 54.902344 14.652344 54.238281 Z M 26.328125 52.65625 C 26.175781 52.058594 26.242188 51.828125 26.941406 51.6875 C 28.40625 51.398438 29.835938 51.738281 31.253906 51.867188 C 33.199219 52.042969 35.152344 51.933594 37.089844 52.175781 C 37.773438 52.261719 37.914062 52.472656 37.90625 53.09375 C 37.875 55.480469 38.09375 64.964844 38.125 67.320312 C 38.136719 67.933594 38.035156 68.214844 37.328125 68.242188 C 35.957031 68.300781 34.59375 68.460938 33.230469 68.628906 C 32.527344 68.714844 32.136719 68.496094 31.804688 67.835938 C 29.375 62.992188 27.675781 57.886719 26.328125 52.65625 Z M 37.628906 68.699219 C 37.933594 68.683594 38.121094 68.765625 38.140625 69.09375 C 38.167969 69.460938 37.921875 69.511719 37.652344 69.496094 C 36.070312 69.425781 34.492188 69.351562 32.910156 69.273438 C 34.472656 68.820312 36.054688 68.796875 37.628906 68.699219 Z M 37.675781 69.933594 C 38.054688 69.933594 38.28125 70.101562 38.308594 70.507812 C 38.453125 72.632812 38.601562 74.757812 38.742188 76.882812 C 38.746094 76.933594 38.675781 76.988281 38.558594 77.160156 C 36.210938 75.074219 34.445312 72.589844 33.019531 69.933594 C 34.597656 69.933594 36.136719 69.929688 37.675781 69.933594 Z M 39.113281 68.628906 C 39.972656 68.609375 40.832031 68.605469 41.691406 68.601562 C 41.941406 68.597656 42.097656 68.71875 42.082031 68.988281 C 42.070312 69.25 42.027344 69.507812 41.691406 69.519531 C 41.261719 69.527344 40.832031 69.519531 40.402344 69.519531 C 40.402344 69.515625 40.402344 69.511719 40.402344 69.511719 C 40.007812 69.511719 39.617188 69.511719 39.222656 69.507812 C 38.960938 69.507812 38.710938 69.488281 38.699219 69.132812 C 38.691406 68.835938 38.804688 68.636719 39.113281 68.628906 Z M 42.394531 70.652344 C 42.433594 70.179688 42.628906 70.03125 43.0625 70.011719 C 45.796875 69.90625 48.53125 69.785156 51.5625 69.652344 C 48.816406 73.367188 45.898438 76.453125 41.988281 78.464844 C 41.808594 78.558594 41.597656 78.757812 41.417969 78.550781 C 41.332031 78.453125 41.375 78.210938 41.410156 78.046875 C 41.886719 75.601562 42.191406 73.132812 42.394531 70.652344 Z M 42.613281 69.09375 C 42.632812 68.613281 42.964844 68.613281 43.300781 68.636719 C 44.699219 68.746094 46.101562 68.859375 47.503906 68.96875 C 47.929688 69.003906 48.355469 69.027344 48.78125 69.058594 C 46.933594 69.5625 45.0625 69.5 43.195312 69.511719 C 42.910156 69.515625 42.59375 69.542969 42.613281 69.09375 Z M 51.1875 68.980469 C 48.699219 68.511719 46.175781 68.296875 43.648438 68.226562 C 42.710938 68.199219 42.667969 67.910156 42.730469 67.09375 C 43.03125 63.195312 43.246094 59.289062 43.488281 55.386719 C 43.511719 54.988281 43.496094 54.589844 43.515625 54.191406 C 43.605469 52.296875 43.613281 52.359375 45.441406 52.195312 C 48.175781 51.949219 50.921875 51.953125 53.65625 51.671875 C 54.984375 51.53125 56.371094 51.953125 57.730469 52.132812 C 58.148438 52.191406 58.191406 52.492188 58.171875 52.859375 C 58.140625 53.476562 58.164062 54.089844 58.164062 54.707031 C 58.355469 56.390625 57.832031 57.910156 57.171875 59.425781 C 55.808594 62.546875 54.285156 65.574219 52.417969 68.425781 C 52.105469 68.90625 51.8125 69.097656 51.1875 68.980469 Z M 57.554688 59.925781 C 57.78125 61.164062 57.363281 62.351562 57.175781 63.535156 C 56.957031 64.914062 56.480469 66.246094 56.210938 67.617188 C 56.0625 68.386719 55.703125 68.730469 54.945312 68.769531 C 54.226562 68.808594 53.511719 68.910156 52.597656 69.003906 C 54.535156 66.007812 56.097656 63.011719 57.554688 59.925781 Z M 56.648438 70.742188 C 57.21875 71.019531 58.171875 71.050781 58.273438 71.585938 C 58.363281 72.046875 57.441406 72.359375 56.945312 72.695312 C 56.101562 73.277344 55.210938 73.789062 54.335938 74.332031 C 54.296875 74.273438 54.253906 74.210938 54.214844 74.152344 C 54.652344 73.167969 55.132812 72.199219 55.515625 71.191406 C 55.757812 70.550781 56.085938 70.472656 56.648438 70.742188 Z M 56.804688 70.328125 C 56.523438 70.195312 56.015625 70.253906 56.105469 69.691406 C 56.1875 69.183594 56.503906 69.035156 56.996094 68.957031 C 58.84375 68.671875 60.679688 68.324219 62.519531 68 C 62.558594 68.050781 62.601562 68.105469 62.640625 68.15625 C 61.519531 69.109375 60.394531 70.058594 59.28125 71.019531 C 59.007812 71.257812 58.773438 71.167969 58.496094 71.039062 C 57.9375 70.789062 57.355469 70.589844 56.804688 70.328125 Z M 56.503906 68.511719 C 57.558594 64.785156 58.117188 61.140625 58.554688 57.460938 C 58.730469 55.953125 59.507812 54.523438 59.976562 53.046875 C 60.140625 52.523438 60.511719 52.621094 60.84375 52.6875 C 64.28125 53.371094 67.652344 54.265625 70.839844 55.765625 C 71.414062 56.035156 71.457031 56.324219 71.167969 56.855469 C 69.167969 60.519531 66.730469 63.859375 63.855469 66.878906 C 63.65625 67.085938 63.46875 67.277344 63.152344 67.347656 C 61.015625 67.828125 58.871094 68.28125 56.503906 68.511719 Z M 69.691406 60.296875 C 70.355469 59.222656 70.980469 58.125 71.625 57.042969 C 71.78125 56.78125 71.859375 56.378906 72.324219 56.621094 C 72.679688 56.800781 72.753906 57.09375 72.660156 57.441406 C 71.945312 60.101562 70.976562 62.664062 69.640625 65.078125 C 69.511719 65.316406 69.316406 65.46875 69.078125 65.558594 C 67.699219 66.070312 66.320312 66.570312 64.808594 66.789062 C 66.550781 64.6875 68.261719 62.597656 69.691406 60.296875 Z M 72.59375 56.230469 C 72.351562 56.128906 72.164062 55.996094 72.339844 55.667969 C 72.617188 55.144531 72.859375 54.605469 73.234375 53.824219 C 73.402344 54.757812 73.097656 55.320312 73.03125 55.914062 C 73.007812 56.105469 72.886719 56.355469 72.59375 56.230469 Z M 71.957031 55.300781 C 71.765625 55.695312 71.507812 55.621094 71.167969 55.453125 C 67.972656 53.878906 64.566406 52.972656 61.089844 52.28125 C 60.777344 52.21875 60.296875 52.253906 60.410156 51.675781 C 60.484375 51.292969 60.457031 50.820312 60.976562 50.746094 C 65.386719 50.105469 69.699219 49.0625 73.890625 47.511719 C 74.332031 50.429688 73.140625 52.867188 71.957031 55.300781 Z M 72.578125 47.460938 C 69.109375 48.65625 65.539062 49.441406 61.941406 50.113281 C 60.789062 50.328125 60.769531 50.269531 61.058594 49.132812 C 62.386719 43.851562 63.050781 38.476562 63.222656 33.042969 C 63.246094 32.289062 63.308594 31.996094 64.214844 32.183594 C 66.675781 32.695312 69.105469 33.304688 71.5 34.070312 C 72.019531 34.234375 72.28125 34.507812 72.410156 35 C 73.296875 38.40625 73.792969 41.871094 73.992188 45.609375 C 74.332031 46.632812 73.640625 47.09375 72.578125 47.460938 Z M 76.96875 36.671875 C 79.121094 37.460938 80.542969 39.375 80.503906 41.273438 C 80.484375 42.265625 79.925781 42.949219 79.300781 43.609375 C 78.351562 44.609375 77.21875 45.335938 75.859375 45.996094 C 76.484375 42.835938 77.070312 39.808594 76.96875 36.671875 Z M 75.398438 22.835938 C 78.183594 27.660156 79.847656 32.746094 80.222656 38.265625 C 79.277344 37.457031 78.363281 36.703125 77.332031 36.109375 C 76.921875 35.871094 76.960938 35.535156 76.964844 35.179688 C 77.027344 31.390625 76.320312 27.726562 75.21875 24.121094 C 75.054688 23.585938 75.0625 23.582031 75.398438 22.835938 Z M 76.371094 32.839844 C 76.410156 33.488281 76.460938 34.136719 76.496094 34.648438 C 76.664062 35.511719 76.394531 35.640625 75.796875 35.28125 C 75.765625 35.261719 75.734375 35.238281 75.699219 35.230469 C 73.328125 34.597656 71.871094 33.179688 71.46875 30.652344 C 71.316406 29.679688 70.800781 28.75 70.363281 27.84375 C 70.066406 27.226562 70.101562 26.914062 70.785156 26.628906 C 71.984375 26.125 73.09375 25.441406 74.058594 24.5625 C 74.535156 24.125 74.695312 24.160156 74.886719 24.804688 C 75.671875 27.433594 76.199219 30.101562 76.371094 32.839844 Z M 74.878906 21.070312 C 74.390625 20.359375 73.902344 19.652344 73.417969 18.945312 C 74.3125 19.371094 74.796875 20.085938 74.878906 21.070312 Z M 71.054688 15.066406 C 71.679688 15.855469 72.308594 16.640625 72.933594 17.429688 C 71.707031 17.117188 71.585938 15.929688 70.746094 15.3125 C 70.847656 15.230469 70.953125 15.148438 71.054688 15.066406 Z M 72.265625 18.492188 C 72.972656 19.910156 73.652344 21.332031 74.226562 22.8125 C 74.433594 23.34375 74.375 23.679688 73.980469 24.050781 C 72.90625 25.050781 71.644531 25.738281 70.339844 26.371094 C 69.699219 26.683594 69.613281 26.152344 69.4375 25.792969 C 67.953125 22.765625 66.191406 19.910156 64.117188 17.253906 C 63.34375 16.261719 62.519531 15.304688 61.550781 14.128906 C 64.867188 14.835938 67.835938 15.660156 70.660156 16.972656 C 71.382812 17.304688 71.90625 17.769531 72.265625 18.492188 Z M 69.707031 15.292969 C 69.976562 15.570312 70.222656 15.867188 70.476562 16.152344 C 67.785156 15.222656 65.121094 14.355469 62.375 13.863281 C 60.726562 13.570312 59.863281 12.660156 59.269531 11.238281 C 59.070312 10.773438 59.105469 10.515625 59.550781 10.28125 C 59.832031 10.128906 60.183594 9.964844 60.324219 9.707031 C 61.148438 8.203125 62 9.003906 62.898438 9.605469 C 65.371094 11.261719 67.644531 13.148438 69.707031 15.292969 Z M 61.375 7.078125 C 63.246094 7.78125 67.628906 11.570312 68.746094 13.476562 C 68.386719 13.472656 68.238281 13.210938 68.054688 13.046875 C 66.195312 11.382812 64.230469 9.859375 62.089844 8.578125 C 61.46875 8.207031 61.226562 7.765625 61.375 7.078125 Z M 60.863281 7.628906 C 58.570312 6.238281 55.753906 5.84375 53.804688 3.816406 C 56.417969 4.613281 59.285156 4.933594 60.863281 7.628906 Z M 53.234375 4.28125 C 51.445312 3.871094 49.707031 3.367188 47.949219 2.925781 C 49.785156 3.117188 51.730469 2.832031 53.234375 4.28125 Z M 54.511719 5.425781 C 55.925781 6.066406 56.648438 7.640625 57.488281 8.949219 C 57.785156 9.410156 58.484375 10.105469 58.144531 10.386719 C 57.574219 10.859375 57.117188 10 56.675781 9.65625 C 53.3125 7.027344 49.675781 4.914062 45.628906 3.539062 C 45.363281 3.449219 45.105469 3.335938 44.84375 3.230469 C 48.207031 3.441406 51.480469 4.046875 54.511719 5.425781 Z M 57.398438 10.84375 C 54.929688 11.609375 52.722656 12.570312 50.230469 12.097656 C 49.820312 12.019531 49.582031 11.824219 49.402344 11.503906 C 47.75 8.550781 45.808594 5.835938 43.160156 3.679688 C 43.097656 3.628906 43.109375 3.484375 43.054688 3.242188 C 48.429688 4.621094 53.042969 7.226562 57.398438 10.84375 Z M 41.398438 3.160156 C 41.960938 3.25 42.613281 3.617188 42.683594 4.417969 C 42.816406 5.925781 42.976562 7.429688 43.117188 8.933594 C 43.15625 9.328125 43.152344 9.726562 43.195312 10.121094 C 43.382812 11.824219 43.386719 11.824219 41.734375 11.800781 C 39.945312 11.769531 39.945312 11.769531 40.175781 9.992188 C 40.429688 8.0625 40.648438 6.128906 40.960938 4.214844 C 41.019531 3.855469 40.917969 3.082031 41.398438 3.160156 Z M 39.621094 11.109375 C 39.582031 11.777344 39.175781 11.828125 38.660156 11.816406 C 35.984375 11.753906 33.320312 11.996094 30.425781 12.1875 C 33.1875 8.300781 36.324219 5.097656 40.726562 2.941406 C 40.199219 5.8125 39.792969 8.445312 39.621094 11.109375 Z M 38.792969 3.324219 C 37.671875 4.171875 36.621094 4.917969 35.628906 5.730469 C 33.65625 7.351562 31.957031 9.238281 30.5 11.324219 C 29.980469 12.0625 29.457031 12.152344 28.671875 11.953125 C 26.597656 11.425781 26.640625 11.464844 27.441406 9.46875 C 28.21875 7.527344 29.464844 6.214844 31.496094 5.484375 C 33.722656 4.683594 35.945312 3.894531 38.234375 3.296875 C 38.367188 3.261719 38.519531 3.308594 38.792969 3.324219 Z M 32.503906 3.476562 C 33.75 3.355469 34.96875 2.984375 36.238281 3.140625 C 34.34375 3.917969 32.355469 4.386719 30.597656 5.4375 C 30.472656 5.511719 30.199219 5.496094 30.101562 5.40625 C 29.941406 5.257812 30.113281 5.082031 30.226562 4.953125 C 30.84375 4.246094 31.460938 3.578125 32.503906 3.476562 Z M 30.4375 3.371094 C 27.652344 4.167969 24.9375 5.152344 22.273438 6.269531 C 24.699219 4.4375 27.511719 3.742188 30.4375 3.371094 Z M 22.050781 7.039062 C 24.574219 5.808594 27.167969 4.78125 29.960938 4.199219 C 29.3125 5.300781 28.710938 6.359375 27.492188 6.960938 C 26.109375 7.640625 24.832031 8.53125 23.59375 9.460938 C 22.894531 9.992188 22.113281 9.667969 21.460938 8.625 C 20.960938 7.828125 21.292969 7.40625 22.050781 7.039062 Z M 20.644531 7.871094 C 20.886719 8.691406 21.34375 9.367188 22.042969 9.855469 C 22.386719 10.09375 22.464844 10.257812 22.09375 10.574219 C 20.8125 11.683594 19.566406 12.832031 18.289062 13.945312 C 17.777344 14.386719 17.078125 14.363281 16.472656 14.566406 C 15.394531 14.925781 14.296875 15.234375 12.953125 15.640625 C 15.046875 12.347656 17.113281 9.429688 20.644531 7.871094 Z M 14.695312 12.085938 C 13.226562 13.84375 12.722656 16.542969 9.695312 17.019531 C 11.257812 15.082031 12.851562 13.460938 14.695312 12.085938 Z M 8.414062 18.765625 C 9.304688 17.925781 10.363281 17.308594 11.773438 16.785156 C 10.546875 19.226562 9.640625 21.5 9.007812 23.875 C 8.828125 24.550781 8.59375 24.382812 8.214844 24.066406 C 6.425781 22.546875 6.464844 20.601562 8.414062 18.765625 Z M 6.324219 21.921875 C 6.808594 23.214844 7.523438 24.125 8.460938 24.863281 C 8.777344 25.113281 8.585938 25.488281 8.535156 25.789062 C 8.03125 28.691406 7.539062 31.597656 6.527344 34.378906 C 6.382812 34.773438 6.25 35.132812 5.796875 35.363281 C 4.257812 36.148438 2.800781 37.066406 1.523438 38.699219 C 1.875 32.617188 3.375 27.191406 6.324219 21.921875 Z M 1.574219 40.210938 C 2.011719 37.808594 4.152344 36.960938 6.089844 35.738281 C 5.800781 37.460938 5.492188 38.964844 5.304688 40.484375 C 5.121094 41.980469 5.058594 43.488281 4.925781 45.207031 C 2.960938 43.941406 1.117188 42.734375 1.574219 40.210938 Z M 6.683594 58.621094 C 6.328125 58.78125 6.289062 58.382812 6.1875 58.195312 C 3.65625 53.578125 2.089844 48.664062 1.628906 43.09375 C 2.585938 44.207031 3.464844 44.945312 4.464844 45.523438 C 4.875 45.757812 4.96875 46.109375 4.976562 46.523438 C 5.042969 50.390625 5.667969 54.171875 6.824219 57.863281 C 6.914062 58.148438 7.011719 58.472656 6.683594 58.621094 Z M 7.148438 57.011719 C 6.371094 54.425781 5.800781 51.804688 5.683594 49.105469 C 5.644531 48.167969 5.289062 47.253906 5.519531 46.234375 C 6.722656 46.742188 7.839844 47.222656 8.96875 47.675781 C 9.347656 47.828125 9.527344 48.097656 9.632812 48.464844 C 10.1875 50.371094 10.867188 52.234375 11.683594 54.042969 C 11.941406 54.605469 11.847656 54.871094 11.296875 55.109375 C 10.066406 55.640625 8.914062 56.3125 7.910156 57.21875 C 7.535156 57.558594 7.347656 57.679688 7.148438 57.011719 Z M 9.949219 63.621094 C 9.0625 62.101562 8.40625 60.476562 7.75 58.847656 C 7.570312 58.398438 7.660156 58.09375 7.972656 57.785156 C 9.046875 56.726562 10.347656 56.03125 11.691406 55.398438 C 12.359375 55.085938 12.410156 55.671875 12.582031 56.015625 C 14.171875 59.230469 16.066406 62.257812 18.3125 65.058594 C 18.941406 65.839844 19.59375 66.601562 20.449219 67.636719 C 16.878906 66.878906 13.707031 65.992188 10.726562 64.488281 C 10.335938 64.292969 10.148438 63.960938 9.949219 63.621094 Z M 11.644531 65.597656 C 13.796875 66.316406 15.921875 67.070312 18.125 67.570312 C 18.617188 67.683594 19.101562 67.863281 19.597656 67.90625 C 21.3125 68.046875 22.183594 69.121094 22.761719 70.597656 C 22.910156 70.96875 22.945312 71.304688 22.570312 71.394531 C 21.605469 71.625 21.296875 73.40625 20.253906 72.820312 C 16.964844 70.976562 14.121094 68.515625 11.644531 65.597656 Z M 20.609375 74.800781 C 17.621094 73.03125 15.171875 70.769531 12.960938 68.089844 C 13.347656 68.019531 13.472656 68.277344 13.625 68.421875 C 15.566406 70.210938 17.644531 71.824219 19.902344 73.1875 C 20.511719 73.554688 20.738281 74.011719 20.609375 74.800781 Z M 21.082031 73.824219 C 23.414062 75.554688 26.21875 75.898438 28.265625 77.828125 C 26.089844 78.058594 21.539062 75.660156 21.082031 73.824219 Z M 28.453125 77.328125 C 30.371094 77.832031 32.054688 78.269531 33.734375 78.710938 C 31.960938 78.632812 30.105469 78.886719 28.453125 77.328125 Z M 29.105469 77.011719 C 26.261719 76.253906 25.25 73.828125 23.851562 71.71875 C 23.769531 71.59375 23.714844 71.449219 23.824219 71.324219 C 23.964844 71.160156 24.144531 71.179688 24.3125 71.28125 C 24.40625 71.339844 24.492188 71.402344 24.574219 71.472656 C 28.261719 74.574219 32.375 76.917969 36.921875 78.558594 C 34.238281 78.410156 31.683594 77.691406 29.105469 77.011719 Z M 35.792969 77.546875 C 31.953125 76.144531 28.5 74.074219 25.320312 71.523438 C 24.6875 71.015625 24.789062 70.789062 25.484375 70.597656 C 27.492188 70.046875 29.464844 69.277344 31.617188 69.648438 C 31.945312 69.703125 32.261719 69.691406 32.445312 70.03125 C 34.125 73.101562 36.222656 75.839844 38.847656 78.164062 C 38.890625 78.199219 38.875 78.296875 38.894531 78.429688 C 37.785156 78.351562 36.792969 77.910156 35.792969 77.546875 Z M 40.582031 78.578125 C 40.082031 78.519531 39.480469 78.214844 39.382812 77.644531 C 38.980469 75.292969 38.890625 72.90625 38.710938 70.527344 C 38.679688 70.082031 38.933594 69.972656 39.320312 69.992188 C 39.679688 70.007812 40.042969 69.996094 40.402344 69.996094 C 41.976562 70.082031 41.980469 70.082031 41.832031 71.730469 C 41.652344 73.746094 41.414062 75.75 40.988281 77.730469 C 40.921875 78.039062 41.082031 78.636719 40.582031 78.578125 Z M 41.375 80.578125 C 41.183594 80.578125 40.816406 80.742188 40.851562 80.289062 C 40.875 79.917969 41.101562 79.804688 41.441406 79.867188 C 41.824219 79.9375 42.191406 80.042969 42.609375 80.367188 C 42.152344 80.660156 41.75 80.570312 41.375 80.578125 Z M 51.84375 70.03125 C 52.164062 69.585938 52.511719 69.417969 53.003906 69.753906 C 53.089844 69.8125 53.210938 69.824219 53.316406 69.847656 C 55.402344 70.34375 55.359375 70.328125 54.5625 72.273438 C 53.804688 74.117188 52.699219 75.484375 50.730469 76.199219 C 48.34375 77.0625 46 78.03125 43.449219 78.339844 C 46.824219 76.097656 49.515625 73.253906 51.84375 70.03125 Z M 45.152344 78.800781 C 47.46875 78.011719 49.773438 77.191406 52.035156 76.25 C 50.445312 79.109375 47.574219 78.304688 45.152344 78.800781 Z M 51.859375 78.328125 C 54.457031 77.535156 57.019531 76.625 59.539062 75.605469 C 57.261719 77.316406 54.617188 77.988281 51.859375 78.328125 Z M 60.035156 74.691406 C 57.414062 75.972656 54.722656 77.039062 51.785156 77.75 C 52.746094 76.125 53.921875 74.996094 55.488281 74.210938 C 56.542969 73.683594 57.472656 72.914062 58.457031 72.253906 C 59.128906 71.796875 59.96875 72.167969 60.554688 73.167969 C 60.980469 73.890625 60.792969 74.324219 60.035156 74.691406 Z M 63.726562 72.519531 C 63.398438 72.742188 63.046875 72.929688 62.730469 73.171875 C 61.929688 73.777344 61.273438 74.054688 60.765625 72.792969 C 60.566406 72.304688 59.984375 71.972656 59.601562 71.597656 C 62.105469 68.8125 64.960938 66.683594 68.75 66.351562 C 68.308594 67.769531 65.386719 71.402344 63.726562 72.519531 Z M 67.246094 69.6875 C 68.765625 67.9375 69.296875 65.222656 72.070312 64.769531 C 71.714844 65.710938 68.945312 68.640625 67.246094 69.6875 Z M 74.5625 61.714844 C 73.613281 63.339844 72.097656 64.152344 70.441406 64.828125 C 71.476562 62.503906 72.386719 60.191406 73.027344 57.777344 C 73.144531 57.332031 73.296875 57.367188 73.613281 57.570312 C 75.085938 58.507812 75.4375 60.21875 74.5625 61.714844 Z M 73.746094 57.09375 C 73.417969 56.828125 73.375 56.582031 73.4375 56.167969 C 73.914062 53.148438 74.515625 50.164062 75.503906 47.261719 C 75.617188 46.933594 75.734375 46.625 76.113281 46.445312 C 77.714844 45.679688 79.15625 44.6875 80.519531 43.058594 C 80.089844 49.1875 78.617188 54.648438 75.632812 59.933594 C 75.257812 58.613281 74.601562 57.769531 73.746094 57.09375 Z M 73.746094 57.09375 " fill-opacity="1" fill-rule="nonzero"/></g></g></g></g><g fill="#94bd0f" fill-opacity="1"><g transform="translate(43.721427, 76.256665)"><g><path d="M 20.5 -27.796875 L 15.980469 -27.796875 C 15.738281 -27.796875 15.601562 -27.621094 15.601562 -27.480469 L 15.601562 -9.277344 C 15.601562 -6.460938 13.027344 -5.105469 10.421875 -5.105469 C 7.851562 -5.105469 5.558594 -6.566406 5.246094 -9.3125 L 5.246094 -22.757812 L 0 -22.757812 L 0 -9.277344 C 0 -3.542969 4.691406 0 10.421875 0 C 16.328125 0 20.847656 -3.40625 20.847656 -9.277344 L 20.847656 -27.480469 C 20.847656 -27.621094 20.671875 -27.796875 20.5 -27.796875 Z M 20.5 -27.796875 "/></g></g></g><g fill="#94bd0f" fill-opacity="1"><g transform="translate(65.610033, 76.256665)"><g><path d="M 23 -27.796875 L 18.519531 -27.796875 C 18.273438 -27.796875 18.101562 -27.621094 18.101562 -27.480469 L 18.101562 -9.378906 L 5.28125 -27.691406 C 5.246094 -27.761719 5.039062 -27.796875 4.96875 -27.796875 L 0.347656 -27.796875 C 0.171875 -27.796875 0 -27.621094 0 -27.480469 L 0 -6.671875 L 5.316406 -6.671875 L 5.316406 -18.414062 L 18.101562 -0.105469 C 18.136719 -0.0351562 18.34375 0 18.414062 0 L 23 0 C 23.242188 0 23.382812 -0.171875 23.382812 -0.3125 L 23.382812 -27.480469 C 23.382812 -27.621094 23.242188 -27.796875 23 -27.796875 Z M 23 -27.796875 "/></g></g></g><g fill="#94bd0f" fill-opacity="1"><g transform="translate(90.173915, 76.256665)"><g><path d="M 11.328125 -4.761719 L 8.546875 -4.761719 L 8.546875 -27.796875 L 3.230469 -27.796875 L 3.230469 -4.761719 L 0.382812 -4.761719 C 0.171875 -4.761719 0 -4.621094 0 -4.445312 L 0 -0.3125 C 0 -0.171875 0.171875 0 0.382812 0 L 11.328125 0 C 11.570312 0 11.707031 -0.171875 11.707031 -0.3125 L 11.707031 -4.445312 C 11.707031 -4.621094 11.570312 -4.761719 11.328125 -4.761719 Z M 11.328125 -4.761719 "/></g></g></g><path stroke-linecap="butt" transform="matrix(0.174654, 0.316983, -0.316983, 0.174654, 36.824281, 64.147769)" fill="none" stroke-linejoin="miter" d="M 43.512935 72.849197 L 43.51383 85.998554 L 4.360351 86.003352 L 4.357636 29.154894 L 42.694476 29.156095 L 42.694781 41.836845 L 18.391072 41.841094 L 18.395736 51.270918 L 39.356303 51.273116 L 39.353499 63.064882 L 18.387723 63.072138 L 18.397797 72.849993 Z M 43.512935 72.849197 " stroke="#94bd0f" stroke-width="3.400005" stroke-opacity="1" stroke-miterlimit="4"/><path stroke-linecap="butt" transform="matrix(0.280672, 0.228486, -0.228486, 0.280672, 41.16309, 75.351516)" fill="none" stroke-linejoin="miter" d="M 61.289402 29.157791 L 61.286569 85.999228 L 48.136535 86.001706 L 48.139404 51.915377 L 38.450495 75.112093 L 27.02661 75.115034 L 17.505372 51.913434 L 17.502504 85.999764 L 4.36084 85.995428 L 4.355302 29.160806 L 21.486944 29.1598 L 32.998102 57.797647 L 44.771362 29.160311 Z M 61.289402 29.157791 " stroke="#94bd0f" stroke-width="3.400005" stroke-opacity="1" stroke-miterlimit="4"/><path stroke-linecap="butt" transform="matrix(0.347449, 0.101301, -0.101301, 0.347449, 55.267894, 87.482896)" fill="none" stroke-linejoin="miter" d="M 18.392282 70.046441 L 18.389366 86.000637 L 4.358101 85.999212 L 4.356967 29.156614 L 25.12367 29.161745 C 33.881339 29.160476 40.10459 30.685119 43.783061 33.738696 C 47.474916 36.799614 49.31573 41.917975 49.318886 49.101119 C 49.317298 56.229434 47.37095 61.507582 43.466457 64.928224 C 39.569304 68.335482 33.547343 70.046253 25.38417 70.042834 Z M 35.086002 49.102264 C 35.087999 46.448412 34.36029 44.569444 32.90892 43.486083 C 31.464891 42.389339 28.865924 41.842935 25.122382 41.84385 L 18.386944 41.840144 L 18.393966 57.712743 L 25.116022 57.709109 C 28.927777 57.710791 31.544132 57.082888 32.959045 55.804675 C 34.376979 54.536825 35.086972 52.306142 35.086002 49.102264 Z M 35.086002 49.102264 " stroke="#94bd0f" stroke-width="3.400005" stroke-opacity="1" stroke-miterlimit="4"/><path stroke-linecap="butt" transform="matrix(0.361589, -0.0153556, 0.0153556, 0.361589, 69.140116, 91.906278)" fill="none" stroke-linejoin="miter" d="M 40.616584 72.851796 L 40.62001 85.999203 L 4.364892 86.004388 L 4.359083 29.158709 L 18.392116 29.160484 L 18.394957 72.847972 Z M 40.616584 72.851796 " stroke="#94bd0f" stroke-width="3.400005" stroke-opacity="1" stroke-miterlimit="4"/><path stroke-linecap="butt" transform="matrix(0.339607, -0.125099, 0.125099, 0.339607, 80.768807, 92.076997)" fill="none" stroke-linejoin="miter" d="M 43.513565 72.853323 L 43.513173 86.000274 L 4.359095 86.001214 L 4.363645 29.158665 L 42.697905 29.166296 L 42.698554 41.842038 L 18.395563 41.838486 L 18.394981 51.270134 L 39.351533 51.271725 L 39.352137 63.073279 L 18.395585 63.071687 L 18.394487 72.848213 Z M 43.513565 72.853323 " stroke="#94bd0f" stroke-width="3.400005" stroke-opacity="1" stroke-miterlimit="4"/><path stroke-linecap="butt" transform="matrix(0.27339, -0.23715, 0.23715, 0.27339, 92.657955, 88.988171)" fill="none" stroke-linejoin="miter" d="M 55.932638 57.534646 C 55.931321 67.863866 53.830188 75.342865 49.622167 79.979796 C 45.428291 84.60042 38.622139 86.912179 29.195558 86.907999 C 19.340496 86.90363 12.422686 84.732057 8.432895 80.370983 C 4.444184 76.025135 2.457949 68.415453 2.45081 57.535947 C 2.451046 47.191502 4.55326 39.727729 8.741145 35.130483 C 12.945336 30.547383 19.767794 28.249769 29.194375 28.253948 C 39.049437 28.258318 45.967246 30.42989 49.955957 34.775739 C 53.945748 39.136813 55.929822 46.716043 55.932638 57.534646 Z M 18.386222 69.687296 C 19.189769 71.198755 20.35077 72.248722 21.885531 72.851342 C 23.44367 73.459954 25.87468 73.754117 29.195948 73.763202 C 32.516135 73.757061 34.9436 73.462333 36.476181 72.848567 C 38.025069 72.248945 39.197334 71.194031 39.977752 69.684906 C 40.58077 68.479119 41.012665 66.91057 41.28051 64.971105 C 41.556508 63.038712 41.702245 60.56468 41.701413 57.534862 C 41.704411 54.451213 41.563609 51.928659 41.279006 49.967199 C 41.009628 48.004658 40.575328 46.413431 39.977185 45.208742 C 39.245443 43.630977 38.118723 42.525018 36.566576 41.893027 C 35.036726 41.251803 32.573103 40.92935 29.192013 40.939813 C 25.809843 40.935051 23.345935 41.255319 21.799209 41.885393 C 20.260636 42.522538 19.130217 43.62804 18.392727 45.202979 C 17.797862 46.415839 17.367048 47.999614 17.086139 49.970611 C 16.819375 51.925301 16.685034 54.452083 16.682035 57.535732 C 16.68994 60.557396 16.820427 63.042427 17.087643 64.974516 C 17.370085 66.905525 17.803304 68.481527 18.386222 69.687296 Z M 18.386222 69.687296 " stroke="#94bd0f" stroke-width="3.400005" stroke-opacity="1" stroke-miterlimit="4"/><path stroke-linecap="butt" transform="matrix(0.173236, -0.31776, 0.31776, 0.173236, 105.501213, 78.298481)" fill="none" stroke-linejoin="miter" d="M 25.916621 64.80078 L 14.411512 62.074603 C 9.817911 60.97707 6.692249 59.325108 5.019028 57.090288 C 3.369925 54.854612 2.54108 51.643146 2.547135 47.460201 C 2.550252 40.881708 4.286133 36.038438 7.749612 32.920913 C 11.227734 29.807698 16.625581 28.254019 23.928509 28.255567 C 26.952015 28.254485 29.646442 28.371345 32.003169 28.635432 C 34.368517 28.870233 36.537428 29.285887 38.539188 29.891012 L 38.532212 42.48292 C 33.949743 41.698939 30.789371 41.246035 29.056263 41.133686 C 27.336942 41.001528 25.533188 40.939986 23.663956 40.938729 C 21.118526 40.937328 19.274183 41.365052 18.130927 42.2219 C 16.977338 43.059795 16.399901 44.480979 16.402925 46.470808 C 16.40358 47.441603 16.589484 48.188474 16.955469 48.701945 C 17.325764 49.200772 18.015662 49.586825 19.033782 49.830816 L 29.923036 52.35185 C 33.069563 53.095042 35.331441 53.816511 36.712977 54.501615 C 38.109156 55.191029 39.222754 56.083673 40.067557 57.159738 C 41.040692 58.313355 41.75017 59.79511 42.186513 61.610167 C 42.646977 63.424368 42.874781 65.623564 42.870782 68.231875 C 42.872832 74.819844 41.119739 79.586447 37.606337 82.522206 C 34.111888 85.447633 28.677021 86.910857 21.311211 86.906712 C 17.56327 86.909363 13.99541 86.678613 10.598155 86.21963 C 7.22071 85.774433 4.592704 85.21569 2.723615 84.538235 L 2.723855 71.212415 C 5.138184 72.010581 8.015117 72.642595 11.334848 73.094671 C 14.649412 73.537271 17.980389 73.76194 21.313135 73.764369 C 23.969685 73.766655 25.812287 73.425932 26.827154 72.76201 C 27.856664 72.102397 28.374645 70.775094 28.381098 68.780098 C 28.379643 67.514705 28.206698 66.588666 27.86743 66.011457 C 27.542805 65.438559 26.890813 65.031841 25.916621 64.80078 Z M 25.916621 64.80078 " stroke="#94bd0f" stroke-width="3.400005" stroke-opacity="1" stroke-miterlimit="4"/></svg>