<svg xmlns="http://www.w3.org/2000/svg" xmlns:xlink="http://www.w3.org/1999/xlink" width="500" zoomAndPan="magnify" viewBox="0 0 375 374.999991" height="500" preserveAspectRatio="xMidYMid meet" version="1.0"><defs><g/></defs><g fill="#8b7ac8" fill-opacity="0.4"><g transform="translate(75.959313, 280.156605)"><g><path d="M 79.6875 1.660156 C 108.148438 1.660156 140.878906 -15.890625 140.878906 -49.566406 L 140.878906 -167.679688 L 116.6875 -167.679688 L 116.6875 -49.804688 C 116.6875 -31.542969 97.003906 -22.292969 79.6875 -22.292969 C 62.136719 -22.292969 42.453125 -31.304688 42.453125 -49.566406 L 42.453125 -167.679688 L 18.261719 -167.679688 L 18.261719 -49.804688 C 18.261719 -15.890625 50.515625 1.660156 79.6875 1.660156 Z M 79.6875 1.660156 "/></g></g></g><g fill="#8b7ac8" fill-opacity="0.4"><g transform="translate(187.65841, 280.156605)"><g><path d="M 121.667969 -23.953125 L 44.585938 -23.953125 L 44.585938 -72.8125 L 119.769531 -72.8125 L 119.769531 -97.003906 L 44.585938 -97.003906 L 44.585938 -143.722656 L 121.429688 -143.722656 L 121.429688 -167.679688 L 20.398438 -167.679688 L 20.398438 0 L 121.667969 0 Z M 121.667969 -23.953125 "/></g></g></g><g fill="#6e51d9" fill-opacity="1"><g transform="translate(65.477605, 269.674898)"><g><path d="M 79.6875 1.660156 C 108.148438 1.660156 140.878906 -15.890625 140.878906 -49.566406 L 140.878906 -167.679688 L 116.6875 -167.679688 L 116.6875 -49.804688 C 116.6875 -31.542969 97.003906 -22.292969 79.6875 -22.292969 C 62.136719 -22.292969 42.453125 -31.304688 42.453125 -49.566406 L 42.453125 -167.679688 L 18.261719 -167.679688 L 18.261719 -49.804688 C 18.261719 -15.890625 50.515625 1.660156 79.6875 1.660156 Z M 79.6875 1.660156 "/></g></g></g><g fill="#6e51d9" fill-opacity="1"><g transform="translate(177.176702, 269.674898)"><g><path d="M 121.667969 -23.953125 L 44.585938 -23.953125 L 44.585938 -72.8125 L 119.769531 -72.8125 L 119.769531 -97.003906 L 44.585938 -97.003906 L 44.585938 -143.722656 L 121.429688 -143.722656 L 121.429688 -167.679688 L 20.398438 -167.679688 L 20.398438 0 L 121.667969 0 Z M 121.667969 -23.953125 "/></g></g></g></svg>