<svg xmlns="http://www.w3.org/2000/svg" xmlns:xlink="http://www.w3.org/1999/xlink" width="200" zoomAndPan="magnify" viewBox="0 0 150 149.999998" height="200" preserveAspectRatio="xMidYMid meet" version="1.0"><defs><filter x="0%" y="0%" width="100%" height="100%" id="9c2d01a074"><feColorMatrix values="0 0 0 0 1 0 0 0 0 1 0 0 0 0 1 0 0 0 1 0" color-interpolation-filters="sRGB"/></filter><g/><mask id="e2c742bae9"><g filter="url(#9c2d01a074)"><rect x="-15" width="180" fill="#000000" y="-15" height="179.999997" fill-opacity="0.6275"/></g></mask><clipPath id="96b577c0d1"><path d="M 0.585938 0.660156 L 117.585938 0.660156 L 117.585938 117.660156 L 0.585938 117.660156 Z M 0.585938 0.660156 " clip-rule="nonzero"/></clipPath><clipPath id="a7d2ea0df6"><rect x="0" width="118" y="0" height="118"/></clipPath></defs><g mask="url(#e2c742bae9)"><g transform="matrix(1, 0, 0, 1, 16, 16)"><g clip-path="url(#a7d2ea0df6)"><g clip-path="url(#96b577c0d1)"><path fill="#000000" d="M 59.003906 0.660156 C 27.148438 0.660156 0.664062 26.929688 0.652344 58.539062 C 0.640625 91.539062 26.46875 117.65625 59.109375 117.660156 C 91.300781 117.664062 117.472656 91.472656 117.507812 59.222656 C 117.546875 26.996094 91.234375 0.660156 59.003906 0.660156 Z M 106.085938 52.984375 C 106.066406 52.878906 106.054688 52.773438 106.035156 52.671875 C 105.871094 51.863281 105.160156 50.679688 105.644531 50.339844 C 106.347656 49.839844 107.308594 50.757812 108.160156 51.046875 C 108.75 51.25 109.273438 51.640625 109.855469 51.875 C 110.691406 52.21875 111.222656 52.691406 110.820312 53.609375 C 110.65625 57.675781 110.242188 61.644531 109.347656 65.550781 C 109.265625 65.90625 109.089844 66.257812 109.074219 66.613281 C 109.050781 67.265625 108.558594 67.460938 108.132812 67.449219 C 107.484375 67.433594 107.734375 66.804688 107.734375 66.453125 C 107.714844 61.898438 107.039062 57.421875 106.085938 52.984375 Z M 31.902344 99.949219 C 31.96875 99.8125 32.035156 99.671875 32.101562 99.535156 C 34.664062 99.894531 37.230469 100.253906 40.210938 100.671875 C 38.246094 101.304688 36.6875 102.042969 35.0625 102.253906 C 33.453125 102.460938 32.96875 100.730469 31.902344 99.949219 Z M 34.085938 105.507812 C 35.007812 106.964844 36.011719 108.367188 37.195312 110.113281 C 34.753906 109.164062 32.816406 108.128906 30.878906 107.09375 C 30.128906 106.691406 30.214844 106.253906 30.703125 105.734375 C 30.917969 105.507812 31.132812 105.273438 31.371094 105.066406 C 32.9375 103.726562 32.984375 103.761719 34.085938 105.507812 Z M 32.324219 98.828125 C 31.65625 98.703125 31.355469 98.347656 31.144531 97.75 C 29.4375 92.957031 28.386719 88.019531 27.832031 82.976562 C 27.652344 81.351562 27.609375 79.710938 27.441406 78.082031 C 27.351562 77.199219 27.554688 76.746094 28.539062 76.605469 C 30.828125 76.273438 33.113281 75.898438 35.367188 75.386719 C 36.539062 75.121094 36.828125 75.695312 37.023438 76.574219 C 37.796875 80.054688 38.832031 83.457031 39.984375 86.824219 C 41.296875 90.652344 42.792969 94.410156 44.625 98.023438 C 45.519531 99.785156 45.496094 99.800781 43.585938 100.15625 C 43.328125 100.207031 43.070312 100.25 42.867188 100.285156 C 39.304688 99.84375 35.796875 99.488281 32.324219 98.828125 Z M 10.367188 51.921875 C 10.472656 54.722656 10.582031 57.519531 11.101562 60.28125 C 11.53125 62.558594 11.988281 64.828125 12.414062 67.109375 C 12.476562 67.449219 12.867188 67.824219 12.519531 68.132812 C 12.207031 68.410156 11.847656 68.136719 11.511719 67.980469 C 10.464844 67.503906 9.40625 67.035156 8.335938 66.609375 C 7.410156 66.238281 7.019531 65.613281 7.261719 64.628906 C 7.527344 60.492188 7.964844 56.375 8.871094 52.316406 C 8.917969 52.117188 9.054688 51.933594 9.101562 51.730469 C 9.214844 51.253906 9.5 50.941406 9.988281 51.015625 C 10.507812 51.09375 10.355469 51.589844 10.367188 51.921875 Z M 11.027344 47.082031 C 10.910156 43.980469 12.625 41.199219 13.894531 38.277344 C 14.128906 37.738281 14.457031 37.660156 15.019531 37.933594 C 19.679688 40.214844 24.640625 41.554688 29.695312 42.605469 C 30.082031 42.683594 30.90625 42.460938 30.785156 43.371094 C 30.695312 44.054688 30.628906 44.636719 29.679688 44.808594 C 25.097656 45.632812 20.507812 46.457031 16.0625 47.894531 C 14.867188 48.277344 13.621094 48.5625 12.496094 49.101562 C 11.070312 49.789062 10.894531 49.164062 11.023438 47.972656 C 11.046875 47.765625 11.027344 47.550781 11.027344 47.082031 Z M 86.128906 18.902344 C 83.527344 18.523438 81.011719 18.15625 78.496094 17.789062 C 78.5 17.703125 78.503906 17.617188 78.507812 17.53125 C 79.898438 17.085938 81.28125 16.625 82.675781 16.195312 C 83.808594 15.847656 85.234375 16.9375 86.128906 18.902344 Z M 83.941406 12.753906 C 83.054688 11.359375 82.09375 10.007812 80.972656 8.355469 C 83.453125 9.234375 85.464844 10.328125 87.457031 11.460938 C 87.945312 11.738281 87.898438 12.121094 87.539062 12.5 C 87.355469 12.691406 87.191406 12.898438 87.003906 13.082031 C 85.347656 14.691406 85.144531 14.648438 83.941406 12.753906 Z M 85.660156 19.542969 C 86.414062 19.671875 86.726562 20.003906 86.964844 20.667969 C 88.746094 25.59375 89.785156 30.6875 90.332031 35.886719 C 90.492188 37.40625 90.535156 38.9375 90.691406 40.460938 C 90.773438 41.238281 90.496094 41.648438 89.742188 41.78125 C 87.257812 42.222656 84.769531 42.640625 82.292969 43.128906 C 81.269531 43.328125 81.285156 42.523438 81.164062 42.007812 C 80.324219 38.441406 79.28125 34.929688 78.089844 31.46875 C 76.777344 27.648438 75.28125 23.902344 73.449219 20.296875 C 72.535156 18.5 72.59375 18.425781 74.542969 18.300781 C 75.015625 18.269531 75.488281 18.257812 75.9375 18.238281 C 79.21875 18.539062 82.445312 18.992188 85.660156 19.542969 Z M 99.023438 39.195312 C 96.964844 39.832031 94.898438 40.441406 92.839844 41.066406 C 91.582031 41.449219 91.371094 40.960938 91.320312 39.9375 C 91.085938 35.238281 90.417969 30.597656 89.277344 26.035156 C 88.804688 24.160156 88.214844 22.316406 87.679688 20.457031 C 89.878906 22.066406 91.484375 24.140625 93.0625 26.234375 C 95.675781 29.699219 97.859375 33.425781 99.863281 37.273438 C 100.460938 38.425781 100.21875 38.824219 99.023438 39.195312 Z M 101.039062 39.851562 C 102.214844 42.648438 103.382812 45.441406 104.214844 48.683594 C 100.058594 47.398438 96.203125 46.289062 92.222656 45.683594 C 91.878906 45.628906 91.671875 45.457031 91.550781 45.121094 C 90.90625 43.355469 91.597656 42.003906 93.4375 41.550781 C 95.582031 41.027344 97.683594 40.367188 99.75 39.59375 C 100.21875 39.417969 100.71875 39.089844 101.039062 39.851562 Z M 90.773438 50.089844 C 90.371094 57.484375 89.253906 64.75 87.464844 71.925781 C 87.175781 73.082031 86.335938 73.300781 85.476562 73.242188 C 84.535156 73.179688 84.886719 72.253906 84.890625 71.710938 C 84.90625 63.109375 83.886719 54.625 82.0625 46.230469 C 81.867188 45.347656 81.925781 44.726562 83.183594 44.949219 C 85.449219 45.355469 87.738281 45.628906 90.019531 45.941406 C 90.726562 46.039062 90.804688 46.492188 90.785156 47.082031 C 90.75 48.085938 90.773438 49.089844 90.773438 50.089844 Z M 85.792969 75.28125 C 85.441406 75.164062 84.824219 75.371094 84.925781 74.683594 C 85.039062 73.941406 85.667969 73.902344 86.253906 73.875 C 86.613281 73.859375 86.878906 73.972656 86.773438 74.445312 C 86.582031 74.859375 86.597656 75.542969 85.792969 75.28125 Z M 86.113281 76.691406 C 85.800781 77.566406 85.5 78.445312 85.191406 79.320312 C 85.085938 79.3125 84.980469 79.308594 84.875 79.300781 C 84.875 78.359375 84.875 77.417969 84.875 76.480469 C 84.875 75.988281 85.097656 75.839844 85.570312 75.976562 C 85.949219 76.085938 86.304688 76.160156 86.113281 76.691406 Z M 63.921875 73.269531 C 62.804688 73.304688 62.976562 72.503906 63.015625 71.847656 C 63.285156 67.628906 63.34375 63.40625 63.632812 59.179688 C 63.632812 54.957031 63.65625 50.730469 63.613281 46.507812 C 63.605469 45.570312 63.855469 45.28125 64.835938 45.214844 C 68.832031 44.941406 72.847656 44.96875 76.816406 44.367188 C 77.023438 44.335938 77.238281 44.355469 77.449219 44.351562 C 80.710938 44.304688 80.933594 44.425781 81.601562 47.578125 C 82.65625 52.566406 83.265625 57.613281 83.746094 62.6875 C 84.039062 65.792969 83.816406 68.917969 84.300781 72.003906 C 84.488281 73.214844 83.898438 73.480469 82.828125 73.652344 C 76.496094 74.675781 70.230469 73.089844 63.921875 73.269531 Z M 72.277344 74.269531 C 69.5 74.671875 66.734375 75.03125 63.941406 74.890625 C 63.5625 74.875 63.007812 75.042969 63.027344 74.355469 C 63.046875 73.816406 63.492188 73.859375 63.84375 73.875 C 66.65625 73.996094 69.464844 74.136719 72.277344 74.269531 Z M 62.453125 71.960938 C 62.472656 72.941406 62.097656 73.25 61.136719 73.203125 C 59.613281 73.121094 58.074219 73.089844 56.550781 73.171875 C 55.453125 73.234375 55.078125 72.917969 55.097656 71.777344 C 55.15625 67.550781 55.738281 50.640625 55.695312 46.410156 C 55.6875 45.5 55.988281 45.214844 56.875 45.253906 C 58.351562 45.320312 59.839844 45.363281 61.308594 45.257812 C 62.613281 45.164062 63.054688 45.554688 62.992188 46.914062 C 62.691406 53.671875 62.917969 60.445312 62.523438 67.207031 C 62.429688 68.789062 62.421875 70.378906 62.453125 71.960938 Z M 53.101562 73.289062 C 48.464844 73.4375 43.832031 73.691406 39.203125 73.960938 C 37.582031 74.054688 36.984375 73.378906 36.648438 71.785156 C 34.996094 63.878906 34.273438 55.875 33.867188 47.828125 C 33.714844 44.828125 33.769531 45.019531 36.71875 44.605469 C 39.75 44.183594 42.710938 44.546875 45.699219 44.703125 C 48.199219 44.835938 51.226562 45.085938 53.816406 45.210938 C 54.226562 45.230469 54.550781 45.570312 54.550781 45.980469 L 54.550781 71.679688 C 54.566406 72.789062 54.34375 73.25 53.101562 73.289062 Z M 53.617188 74.886719 C 50.96875 74.777344 48.320312 74.640625 45.671875 74.515625 C 45.671875 74.421875 45.671875 74.328125 45.671875 74.234375 C 48.332031 74.113281 50.988281 73.984375 53.648438 73.875 C 53.980469 73.859375 54.441406 73.765625 54.484375 74.316406 C 54.535156 74.988281 54.011719 74.90625 53.617188 74.886719 Z M 27.246094 74.277344 C 27.15625 73.753906 27.027344 73.050781 28.03125 73.207031 C 29.78125 73.480469 31.539062 73.714844 33.292969 73.964844 C 34.0625 74.074219 34.832031 74.191406 35.597656 74.304688 C 35.617188 74.402344 35.632812 74.496094 35.648438 74.59375 C 33.054688 75.089844 30.476562 75.722656 27.859375 76.015625 C 26.839844 76.132812 27.351562 74.898438 27.246094 74.277344 Z M 34.699219 73.441406 C 32.609375 72.964844 30.46875 72.691406 28.335938 72.457031 C 27.292969 72.339844 27.183594 71.84375 27.292969 70.992188 C 27.410156 70.050781 27.441406 69.097656 27.507812 68.148438 C 27.742188 60.796875 28.890625 53.582031 30.660156 46.449219 C 30.9375 45.324219 31.613281 45.191406 32.484375 45.246094 C 33.488281 45.3125 33.140625 46.1875 33.195312 46.707031 C 33.480469 49.4375 33.320312 52.179688 33.546875 54.925781 C 34.03125 60.695312 34.804688 66.40625 36 72.0625 C 36.273438 73.359375 36.199219 73.785156 34.699219 73.441406 Z M 32.675781 42.492188 C 32.070312 42.421875 31.847656 42.113281 32.058594 41.527344 C 32.367188 40.664062 32.671875 39.804688 32.980469 38.941406 C 33.085938 38.96875 33.1875 39 33.292969 39.027344 C 33.292969 39.910156 33.296875 40.792969 33.289062 41.679688 C 33.285156 42.089844 33.34375 42.570312 32.675781 42.492188 Z M 32.277344 43.074219 C 32.734375 43.121094 33.117188 43.203125 33.101562 43.777344 C 33.078125 44.496094 32.550781 44.433594 32.078125 44.433594 C 31.726562 44.433594 31.261719 44.519531 31.363281 43.917969 C 31.445312 43.429688 31.636719 43.011719 32.277344 43.074219 Z M 54.191406 44.46875 C 51.359375 44.53125 48.546875 44.25 45.730469 43.871094 C 48.574219 43.847656 51.386719 43.511719 54.210938 43.410156 C 54.59375 43.394531 55.140625 43.273438 55.125 43.945312 C 55.113281 44.597656 54.582031 44.460938 54.191406 44.46875 Z M 61.609375 74.894531 C 60.609375 74.898438 59.613281 74.898438 58.613281 74.898438 C 58.613281 74.894531 58.613281 74.890625 58.613281 74.890625 C 57.667969 74.890625 56.71875 74.898438 55.773438 74.886719 C 55.445312 74.882812 55.136719 74.808594 55.136719 74.375 C 55.140625 73.949219 55.445312 73.863281 55.777344 73.863281 C 57.71875 73.855469 59.664062 73.855469 61.609375 73.863281 C 61.9375 73.863281 62.261719 73.933594 62.246094 74.367188 C 62.234375 74.761719 61.960938 74.894531 61.609375 74.894531 Z M 62.164062 76.847656 C 61.878906 81.855469 61.640625 86.863281 61.355469 91.867188 C 61.238281 93.917969 61 95.964844 60.890625 98.019531 C 60.851562 98.75 60.65625 99.085938 59.886719 99.023438 C 59.3125 98.976562 58.730469 99.015625 58.148438 99.015625 C 55.484375 99.015625 55.453125 99.015625 55.417969 96.273438 C 55.378906 93.210938 55.125 80.433594 55.078125 77.105469 C 55.066406 76.128906 55.265625 75.664062 56.371094 75.726562 C 57.945312 75.820312 59.535156 75.796875 61.113281 75.746094 C 61.960938 75.71875 62.210938 76.035156 62.164062 76.847656 Z M 56.535156 43.40625 C 57.535156 43.402344 58.53125 43.40625 59.53125 43.40625 C 59.53125 43.40625 59.53125 43.402344 59.53125 43.398438 C 60.371094 43.398438 61.214844 43.386719 62.054688 43.40625 C 62.445312 43.417969 62.964844 43.296875 62.949219 43.96875 C 62.9375 44.46875 62.554688 44.523438 62.175781 44.554688 C 60.28125 44.691406 58.390625 44.65625 56.5 44.515625 C 56.1875 44.492188 55.855469 44.453125 55.828125 44.023438 C 55.796875 43.519531 56.128906 43.410156 56.535156 43.40625 Z M 63.679688 43.878906 C 63.734375 43.324219 64.1875 43.394531 64.523438 43.445312 C 66.910156 43.785156 69.324219 43.6875 71.714844 43.886719 C 69.332031 44.605469 66.910156 44.367188 64.519531 44.488281 C 64.105469 44.511719 63.621094 44.527344 63.679688 43.878906 Z M 90.773438 45.050781 C 90.6875 45.585938 90.1875 45.199219 89.859375 45.152344 C 87.230469 44.761719 84.601562 44.375 81.585938 43.933594 C 84.578125 43.386719 87.191406 42.902344 89.804688 42.441406 C 90.136719 42.382812 90.65625 42.195312 90.730469 42.707031 C 90.84375 43.476562 90.898438 44.289062 90.773438 45.050781 Z M 80.472656 42.152344 C 80.695312 43.019531 80.382812 43.46875 79.46875 43.464844 C 78.835938 43.460938 78.203125 43.464844 77.570312 43.464844 C 73.253906 43.269531 68.957031 42.726562 64.628906 42.851562 C 63.875 42.875 63.617188 42.597656 63.628906 41.847656 C 63.746094 34.710938 63.429688 27.582031 63.265625 20.449219 C 63.246094 19.535156 63.570312 19.300781 64.441406 19.257812 C 66.59375 19.148438 68.75 18.964844 70.890625 18.710938 C 71.609375 18.625 71.9375 18.847656 72.234375 19.433594 C 75.917969 26.667969 78.46875 34.308594 80.472656 42.152344 Z M 64.046875 18.703125 C 63.585938 18.773438 63.199219 18.671875 63.175781 18.082031 C 63.148438 17.457031 63.570312 17.417969 64.015625 17.4375 C 66.257812 17.550781 68.496094 17.671875 70.734375 17.792969 C 68.554688 18.601562 66.265625 18.378906 64.046875 18.703125 Z M 70.046875 17.125 C 67.890625 17.035156 65.734375 16.914062 63.578125 16.804688 C 63.191406 16.785156 63.035156 16.558594 63.011719 16.191406 C 62.796875 12.945312 62.574219 9.699219 62.332031 6.109375 C 65.882812 9.195312 68.339844 12.644531 70.464844 16.363281 C 70.800781 16.953125 70.613281 17.148438 70.046875 17.125 Z M 61.78125 18.722656 C 61.101562 18.722656 60.417969 18.722656 59.738281 18.722656 C 59.738281 18.726562 59.738281 18.730469 59.738281 18.734375 C 59.214844 18.734375 58.6875 18.75 58.164062 18.726562 C 57.820312 18.714844 57.367188 18.773438 57.433594 18.191406 C 57.472656 17.828125 57.527344 17.40625 58.019531 17.402344 C 59.328125 17.386719 60.636719 17.398438 61.945312 17.421875 C 62.351562 17.429688 62.425781 17.734375 62.445312 18.078125 C 62.476562 18.566406 62.210938 18.722656 61.78125 18.722656 Z M 58.589844 19.40625 C 58.746094 19.429688 58.90625 19.421875 59.066406 19.425781 C 62.621094 19.453125 62.65625 19.453125 62.726562 23.132812 C 62.777344 25.933594 62.972656 38.195312 63.03125 41.527344 C 63.050781 42.652344 62.574219 42.839844 61.605469 42.78125 C 60.078125 42.6875 58.546875 42.664062 57.019531 42.707031 C 56.15625 42.730469 55.917969 42.417969 55.960938 41.601562 C 56.136719 38.121094 56.222656 34.632812 56.433594 31.152344 C 56.652344 27.625 57.019531 24.101562 57.234375 20.570312 C 57.292969 19.566406 57.675781 19.261719 58.589844 19.40625 Z M 55.648438 18.714844 C 52.835938 18.527344 50.027344 18.3125 47.214844 18.105469 C 47.234375 17.984375 47.25 17.863281 47.269531 17.742188 C 50.042969 17.621094 52.820312 17.484375 55.597656 17.390625 C 56.042969 17.378906 56.722656 17.117188 56.746094 18.015625 C 56.765625 18.875 56.136719 18.746094 55.648438 18.714844 Z M 55.492188 19.308594 C 56.21875 19.308594 56.636719 19.40625 56.574219 20.367188 C 56.085938 27.425781 55.65625 34.488281 55.234375 41.554688 C 55.1875 42.339844 55.074219 42.847656 54.105469 42.832031 C 49.566406 42.746094 45.046875 43.082031 41.285156 43.457031 C 38.566406 43.542969 36.667969 43.003906 34.730469 42.839844 C 33.605469 42.746094 34.027344 41.957031 33.980469 41.3125 C 33.417969 33.886719 37.507812 28.082031 40.574219 21.886719 C 41.976562 19.050781 43.621094 17.660156 47.003906 18.578125 C 49.730469 19.316406 52.636719 19.316406 55.492188 19.308594 Z M 34.964844 31.34375 C 34.605469 29.550781 35.207031 27.824219 35.492188 26.109375 C 35.847656 24 36.519531 21.949219 36.980469 19.859375 C 37.171875 19 37.535156 18.597656 38.449219 18.609375 C 39.542969 18.625 40.613281 18.128906 41.980469 18.445312 C 39.285156 22.6875 37.046875 26.949219 34.964844 31.34375 Z M 37.648438 15.507812 C 37.421875 16.023438 36.96875 15.933594 36.570312 15.773438 C 35.609375 15.382812 34.570312 15.160156 33.65625 14.433594 C 35.503906 12.988281 37.375 11.683594 39.851562 10.449219 C 38.996094 12.417969 38.335938 13.96875 37.648438 15.507812 Z M 33.667969 15.289062 C 34.421875 15.652344 35.21875 15.929688 35.984375 16.269531 C 36.425781 16.464844 37.15625 16.398438 37.054688 17.171875 C 36.964844 17.894531 36.441406 18.199219 35.75 18.3125 C 33.679688 18.648438 31.609375 19.027344 29.535156 19.347656 C 28.980469 19.433594 28.472656 19.875 27.597656 19.453125 C 29.207031 18.050781 30.703125 16.746094 32.207031 15.453125 C 32.644531 15.074219 33.113281 15.019531 33.667969 15.289062 Z M 35.945312 18.972656 C 36.082031 18.957031 36.234375 19.054688 36.429688 19.117188 C 34.9375 24.230469 34.140625 29.4375 33.523438 34.703125 C 33.246094 37.058594 32.109375 39.308594 31.359375 41.609375 C 31.195312 42.121094 30.867188 42.15625 30.371094 42.054688 C 25.3125 41.019531 20.324219 39.765625 15.632812 37.519531 C 14.777344 37.109375 14.621094 36.796875 15.097656 35.917969 C 18.007812 30.566406 21.609375 25.730469 25.757812 21.289062 C 26.003906 21.027344 26.3125 20.726562 26.640625 20.652344 C 29.714844 19.957031 32.800781 19.300781 35.945312 18.972656 Z M 15.332031 33.949219 C 15.019531 34.496094 14.734375 35.058594 14.398438 35.589844 C 14.183594 35.929688 14.195312 36.609375 13.457031 36.292969 C 12.84375 36.03125 12.753906 35.578125 12.929688 35.003906 C 13.292969 33.796875 13.632812 32.582031 14.019531 31.382812 C 14.296875 30.535156 14.726562 29.730469 14.9375 28.867188 C 16.167969 23.871094 19.667969 21.785156 24.679688 21.355469 C 20.984375 25.246094 17.921875 29.425781 15.332031 33.949219 Z M 13.003906 36.84375 C 13.316406 36.976562 13.671875 37.105469 13.382812 37.617188 C 12.960938 38.355469 12.75 39.210938 12.109375 39.914062 C 11.746094 38.925781 12.316406 38.128906 12.363281 37.273438 C 12.378906 36.9375 12.617188 36.679688 13.003906 36.84375 Z M 11.015625 51.6875 C 11.011719 51.050781 10.9375 50.441406 11.730469 50.136719 C 17.414062 47.945312 23.332031 46.679688 29.332031 45.628906 C 30.066406 45.539062 30.207031 45.878906 30.019531 46.566406 C 28.503906 52.0625 27.636719 57.675781 27.082031 63.339844 C 26.832031 65.855469 26.757812 68.394531 26.667969 70.925781 C 26.636719 71.785156 26.480469 72.183594 25.492188 71.972656 C 21.859375 71.191406 18.253906 70.324219 14.714844 69.195312 C 13.945312 68.953125 13.460938 68.59375 13.253906 67.765625 C 11.949219 62.484375 11.058594 57.144531 11.015625 51.6875 Z M 25.695312 72.691406 C 26.933594 72.886719 26.664062 73.871094 26.621094 74.652344 C 26.582031 75.386719 27.050781 76.269531 25.695312 76.59375 C 23.203125 77.195312 20.757812 78.027344 18.316406 78.828125 C 17.726562 79.019531 17.328125 79.113281 17.042969 78.453125 C 15.839844 75.671875 14.722656 72.863281 13.882812 69.730469 C 17.898438 70.941406 21.738281 72.0625 25.695312 72.691406 Z M 20.636719 78.671875 C 22.140625 78.199219 23.671875 77.828125 25.171875 77.351562 C 26.214844 77.023438 26.691406 77.074219 26.773438 78.429688 C 27.109375 84.003906 27.917969 89.515625 29.519531 94.886719 C 29.84375 95.980469 30.199219 97.0625 30.539062 98.152344 C 25.703125 93.5625 21.992188 88.292969 19.007812 82.507812 C 17.542969 79.671875 17.570312 79.636719 20.636719 78.671875 Z M 37.664062 76.359375 C 37.441406 75.492188 37.535156 75.15625 38.554688 74.953125 C 40.695312 74.527344 42.777344 75.023438 44.84375 75.210938 C 47.679688 75.46875 50.527344 75.304688 53.355469 75.664062 C 54.351562 75.789062 54.554688 76.09375 54.542969 76.996094 C 54.5 80.480469 54.816406 94.308594 54.863281 97.738281 C 54.878906 98.636719 54.734375 99.042969 53.699219 99.089844 C 51.707031 99.171875 49.714844 99.40625 47.726562 99.648438 C 46.699219 99.773438 46.128906 99.457031 45.648438 98.492188 C 42.109375 91.429688 39.632812 83.992188 37.664062 76.359375 Z M 54.144531 99.753906 C 54.585938 99.726562 54.859375 99.847656 54.886719 100.328125 C 54.921875 100.863281 54.566406 100.933594 54.171875 100.917969 C 51.867188 100.8125 49.566406 100.699219 47.261719 100.59375 C 49.535156 99.929688 51.84375 99.894531 54.144531 99.753906 Z M 54.207031 101.550781 C 54.757812 101.550781 55.089844 101.796875 55.128906 102.386719 C 55.339844 105.488281 55.558594 108.585938 55.765625 111.683594 C 55.769531 111.757812 55.667969 111.839844 55.496094 112.089844 C 52.070312 109.046875 49.5 105.425781 47.417969 101.550781 C 49.71875 101.550781 51.960938 101.546875 54.207031 101.550781 Z M 56.304688 99.648438 C 57.558594 99.625 58.808594 99.613281 60.058594 99.609375 C 60.425781 99.605469 60.652344 99.78125 60.632812 100.175781 C 60.617188 100.558594 60.554688 100.933594 60.0625 100.945312 C 59.4375 100.960938 58.808594 100.949219 58.183594 100.949219 C 58.183594 100.945312 58.183594 100.941406 58.183594 100.933594 C 57.609375 100.933594 57.035156 100.9375 56.460938 100.933594 C 56.085938 100.929688 55.71875 100.90625 55.703125 100.382812 C 55.691406 99.953125 55.851562 99.660156 56.304688 99.648438 Z M 61.089844 102.597656 C 61.144531 101.910156 61.429688 101.691406 62.0625 101.667969 C 66.046875 101.507812 70.035156 101.332031 74.453125 101.144531 C 70.453125 106.558594 66.195312 111.058594 60.492188 113.988281 C 60.230469 114.125 59.925781 114.417969 59.664062 114.117188 C 59.539062 113.972656 59.601562 113.621094 59.652344 113.378906 C 60.347656 109.8125 60.792969 106.214844 61.089844 102.597656 Z M 61.40625 100.328125 C 61.433594 99.625 61.917969 99.625 62.40625 99.664062 C 64.449219 99.816406 66.492188 99.988281 68.535156 100.148438 C 69.15625 100.195312 69.78125 100.230469 70.402344 100.273438 C 67.707031 101.011719 64.976562 100.917969 62.253906 100.9375 C 61.839844 100.941406 61.375 100.984375 61.40625 100.328125 Z M 73.910156 100.164062 C 70.28125 99.480469 66.597656 99.164062 62.914062 99.0625 C 61.550781 99.027344 61.484375 98.605469 61.578125 97.410156 C 62.019531 91.726562 62.332031 86.035156 62.683594 80.34375 C 62.71875 79.761719 62.695312 79.179688 62.722656 78.601562 C 62.855469 75.839844 62.863281 75.929688 65.53125 75.6875 C 69.519531 75.332031 73.519531 75.335938 77.511719 74.925781 C 79.445312 74.726562 81.464844 75.335938 83.445312 75.601562 C 84.054688 75.683594 84.117188 76.121094 84.089844 76.660156 C 84.042969 77.554688 84.078125 78.457031 84.078125 79.351562 C 84.359375 81.808594 83.597656 84.019531 82.628906 86.230469 C 80.644531 90.78125 78.425781 95.195312 75.703125 99.355469 C 75.246094 100.054688 74.816406 100.332031 73.910156 100.164062 Z M 83.191406 86.957031 C 83.519531 88.765625 82.914062 90.496094 82.640625 92.222656 C 82.320312 94.230469 81.625 96.175781 81.234375 98.175781 C 81.015625 99.296875 80.492188 99.796875 79.386719 99.855469 C 78.339844 99.914062 77.296875 100.058594 75.964844 100.195312 C 78.789062 95.832031 81.066406 91.457031 83.191406 86.957031 Z M 81.867188 102.734375 C 82.703125 103.132812 84.089844 103.183594 84.238281 103.960938 C 84.367188 104.628906 83.027344 105.085938 82.304688 105.582031 C 81.070312 106.425781 79.773438 107.175781 78.5 107.964844 C 78.441406 107.878906 78.378906 107.789062 78.320312 107.703125 C 78.960938 106.269531 79.664062 104.855469 80.21875 103.386719 C 80.570312 102.449219 81.050781 102.339844 81.867188 102.734375 Z M 82.097656 102.128906 C 81.683594 101.929688 80.945312 102.019531 81.078125 101.199219 C 81.199219 100.460938 81.65625 100.238281 82.378906 100.128906 C 85.070312 99.710938 87.746094 99.203125 90.429688 98.730469 C 90.488281 98.808594 90.546875 98.882812 90.609375 98.960938 C 88.972656 100.351562 87.332031 101.734375 85.707031 103.136719 C 85.308594 103.480469 84.96875 103.351562 84.5625 103.164062 C 83.75 102.796875 82.902344 102.511719 82.097656 102.128906 Z M 81.660156 99.480469 C 83.195312 94.046875 84.011719 88.734375 84.644531 83.367188 C 84.90625 81.171875 86.039062 79.082031 86.71875 76.929688 C 86.960938 76.167969 87.5 76.3125 87.984375 76.410156 C 92.996094 77.40625 97.914062 78.710938 102.5625 80.894531 C 103.398438 81.289062 103.460938 81.707031 103.039062 82.484375 C 100.121094 87.824219 96.570312 92.695312 92.375 97.097656 C 92.089844 97.398438 91.8125 97.675781 91.355469 97.78125 C 88.234375 98.480469 85.109375 99.140625 81.660156 99.480469 Z M 100.882812 87.5 C 101.851562 85.9375 102.761719 84.335938 103.707031 82.757812 C 103.933594 82.378906 104.042969 81.792969 104.726562 82.140625 C 105.238281 82.402344 105.347656 82.832031 105.210938 83.339844 C 104.171875 87.21875 102.757812 90.953125 100.8125 94.472656 C 100.621094 94.816406 100.339844 95.042969 99.988281 95.175781 C 97.980469 95.917969 95.96875 96.652344 93.765625 96.96875 C 96.304688 93.902344 98.800781 90.855469 100.882812 87.5 Z M 105.117188 81.574219 C 104.761719 81.421875 104.488281 81.234375 104.746094 80.75 C 105.152344 79.992188 105.503906 79.203125 106.054688 78.066406 C 106.296875 79.425781 105.851562 80.246094 105.753906 81.113281 C 105.722656 81.390625 105.546875 81.757812 105.117188 81.574219 Z M 104.191406 80.21875 C 103.910156 80.792969 103.535156 80.6875 103.039062 80.441406 C 98.378906 78.148438 93.414062 76.820312 88.34375 75.816406 C 87.890625 75.726562 87.191406 75.773438 87.355469 74.929688 C 87.464844 74.375 87.417969 73.6875 88.179688 73.578125 C 94.609375 72.644531 100.894531 71.121094 107.007812 68.863281 C 107.648438 73.117188 105.914062 76.667969 104.191406 80.21875 Z M 105.097656 68.785156 C 100.035156 70.53125 94.832031 71.675781 89.585938 72.65625 C 87.90625 72.96875 87.878906 72.882812 88.296875 71.226562 C 90.234375 63.523438 91.203125 55.691406 91.457031 47.765625 C 91.492188 46.671875 91.582031 46.242188 92.902344 46.515625 C 96.492188 47.261719 100.03125 48.148438 103.523438 49.265625 C 104.277344 49.503906 104.664062 49.902344 104.851562 50.621094 C 106.140625 55.585938 106.863281 60.640625 107.15625 66.085938 C 107.648438 67.578125 106.644531 68.253906 105.097656 68.785156 Z M 111.496094 53.058594 C 114.632812 54.210938 116.703125 56.996094 116.648438 59.769531 C 116.621094 61.214844 115.808594 62.210938 114.894531 63.171875 C 113.515625 64.632812 111.859375 65.6875 109.878906 66.652344 C 110.789062 62.042969 111.644531 57.628906 111.496094 53.058594 Z M 109.207031 32.890625 C 113.269531 39.917969 115.691406 47.335938 116.238281 55.378906 C 114.859375 54.203125 113.527344 53.101562 112.027344 52.238281 C 111.429688 51.890625 111.480469 51.402344 111.492188 50.882812 C 111.582031 45.359375 110.546875 40.015625 108.945312 34.761719 C 108.707031 33.980469 108.71875 33.976562 109.207031 32.890625 Z M 110.625 47.46875 C 110.683594 48.414062 110.753906 49.363281 110.804688 50.109375 C 111.054688 51.363281 110.660156 51.554688 109.785156 51.03125 C 109.742188 51.003906 109.695312 50.96875 109.648438 50.957031 C 106.1875 50.03125 104.0625 47.964844 103.476562 44.28125 C 103.253906 42.863281 102.503906 41.507812 101.867188 40.183594 C 101.433594 39.285156 101.480469 38.832031 102.480469 38.414062 C 104.230469 37.683594 105.847656 36.6875 107.253906 35.402344 C 107.945312 34.769531 108.183594 34.820312 108.464844 35.757812 C 109.605469 39.589844 110.375 43.480469 110.625 47.46875 Z M 108.449219 30.3125 C 107.738281 29.277344 107.027344 28.246094 106.316406 27.214844 C 107.625 27.832031 108.328125 28.875 108.449219 30.3125 Z M 102.875 21.5625 C 103.785156 22.707031 104.699219 23.855469 105.613281 25.003906 C 103.828125 24.546875 103.648438 22.816406 102.421875 21.917969 C 102.574219 21.800781 102.722656 21.679688 102.875 21.5625 Z M 104.636719 26.550781 C 105.667969 28.617188 106.660156 30.695312 107.5 32.855469 C 107.800781 33.625 107.714844 34.117188 107.136719 34.65625 C 105.574219 36.117188 103.734375 37.117188 101.832031 38.039062 C 100.898438 38.496094 100.773438 37.722656 100.515625 37.199219 C 98.351562 32.78125 95.78125 28.621094 92.757812 24.746094 C 91.628906 23.300781 90.429688 21.90625 89.015625 20.191406 C 93.847656 21.226562 98.179688 22.425781 102.296875 24.335938 C 103.351562 24.824219 104.113281 25.5 104.636719 26.550781 Z M 100.910156 21.886719 C 101.300781 22.292969 101.660156 22.722656 102.03125 23.144531 C 98.109375 21.789062 94.222656 20.519531 90.214844 19.804688 C 87.8125 19.375 86.558594 18.050781 85.6875 15.980469 C 85.402344 15.300781 85.449219 14.925781 86.097656 14.582031 C 86.511719 14.359375 87.027344 14.121094 87.230469 13.746094 C 88.433594 11.550781 89.671875 12.71875 90.984375 13.597656 C 94.585938 16.011719 97.902344 18.765625 100.910156 21.886719 Z M 88.761719 9.910156 C 91.488281 10.933594 97.878906 16.460938 99.507812 19.242188 C 98.984375 19.234375 98.769531 18.855469 98.496094 18.613281 C 95.785156 16.1875 92.921875 13.964844 89.804688 12.097656 C 88.898438 11.558594 88.546875 10.914062 88.761719 9.910156 Z M 88.015625 10.714844 C 84.671875 8.6875 80.5625 8.113281 77.726562 5.160156 C 81.535156 6.316406 85.714844 6.785156 88.015625 10.714844 Z M 76.890625 5.835938 C 74.285156 5.238281 71.75 4.5 69.1875 3.859375 C 71.859375 4.136719 74.699219 3.722656 76.890625 5.835938 Z M 78.753906 7.503906 C 80.816406 8.4375 81.867188 10.734375 83.09375 12.640625 C 83.523438 13.308594 84.542969 14.324219 84.050781 14.734375 C 83.21875 15.429688 82.550781 14.171875 81.910156 13.667969 C 77.007812 9.839844 71.703125 6.757812 65.800781 4.753906 C 65.414062 4.621094 65.039062 4.453125 64.660156 4.304688 C 69.5625 4.613281 74.335938 5.496094 78.753906 7.503906 Z M 82.964844 15.40625 C 79.359375 16.519531 76.148438 17.917969 72.515625 17.230469 C 71.910156 17.117188 71.566406 16.832031 71.304688 16.363281 C 68.898438 12.058594 66.0625 8.097656 62.203125 4.957031 C 62.109375 4.882812 62.128906 4.671875 62.050781 4.320312 C 69.890625 6.332031 76.609375 10.128906 82.964844 15.40625 Z M 59.632812 4.199219 C 60.453125 4.332031 61.40625 4.863281 61.511719 6.035156 C 61.703125 8.230469 61.9375 10.421875 62.140625 12.617188 C 62.195312 13.191406 62.191406 13.773438 62.253906 14.347656 C 62.527344 16.832031 62.53125 16.832031 60.125 16.792969 C 57.515625 16.753906 57.515625 16.753906 57.855469 14.160156 C 58.222656 11.347656 58.542969 8.53125 59 5.734375 C 59.085938 5.210938 58.933594 4.089844 59.632812 4.199219 Z M 57.046875 15.785156 C 56.984375 16.761719 56.394531 16.835938 55.640625 16.816406 C 51.742188 16.730469 47.859375 17.082031 43.636719 17.363281 C 47.664062 11.695312 52.238281 7.023438 58.65625 3.882812 C 57.890625 8.066406 57.292969 11.90625 57.046875 15.785156 Z M 55.835938 4.4375 C 54.203125 5.675781 52.667969 6.761719 51.222656 7.949219 C 48.347656 10.308594 45.871094 13.0625 43.742188 16.105469 C 42.992188 17.179688 42.226562 17.3125 41.082031 17.019531 C 38.054688 16.25 38.121094 16.308594 39.285156 13.398438 C 40.421875 10.566406 42.238281 8.652344 45.195312 7.589844 C 48.445312 6.417969 51.6875 5.269531 55.023438 4.398438 C 55.214844 4.351562 55.4375 4.414062 55.835938 4.4375 Z M 46.667969 4.660156 C 48.484375 4.480469 50.261719 3.941406 52.113281 4.171875 C 49.347656 5.308594 46.449219 5.992188 43.886719 7.519531 C 43.707031 7.628906 43.308594 7.605469 43.164062 7.476562 C 42.929688 7.261719 43.183594 7 43.347656 6.8125 C 44.25 5.785156 45.144531 4.808594 46.667969 4.660156 Z M 43.65625 4.507812 C 39.59375 5.667969 35.636719 7.105469 31.75 8.734375 C 35.289062 6.0625 39.390625 5.050781 43.65625 4.507812 Z M 31.425781 9.855469 C 35.109375 8.0625 38.886719 6.5625 42.960938 5.714844 C 42.011719 7.320312 41.136719 8.863281 39.359375 9.738281 C 37.34375 10.730469 35.480469 12.027344 33.675781 13.390625 C 32.65625 14.160156 31.519531 13.6875 30.570312 12.167969 C 29.839844 11.003906 30.324219 10.390625 31.425781 9.855469 Z M 29.375 11.066406 C 29.730469 12.261719 30.398438 13.25 31.417969 13.960938 C 31.917969 14.308594 32.03125 14.546875 31.492188 15.011719 C 29.621094 16.625 27.808594 18.304688 25.941406 19.921875 C 25.199219 20.566406 24.179688 20.535156 23.292969 20.832031 C 21.71875 21.351562 20.125 21.800781 18.164062 22.394531 C 21.214844 17.59375 24.226562 13.339844 29.375 11.066406 Z M 20.699219 17.214844 C 18.558594 19.773438 17.828125 23.710938 13.414062 24.410156 C 15.691406 21.578125 18.019531 19.21875 20.699219 17.214844 Z M 11.546875 26.949219 C 12.84375 25.726562 14.390625 24.828125 16.445312 24.0625 C 14.652344 27.621094 13.335938 30.941406 12.410156 34.402344 C 12.148438 35.390625 11.808594 35.144531 11.257812 34.679688 C 8.644531 32.464844 8.707031 29.628906 11.546875 26.949219 Z M 8.5 31.550781 C 9.207031 33.4375 10.246094 34.765625 11.613281 35.84375 C 12.074219 36.207031 11.800781 36.753906 11.722656 37.191406 C 10.988281 41.421875 10.269531 45.660156 8.792969 49.714844 C 8.585938 50.289062 8.390625 50.8125 7.730469 51.148438 C 5.484375 52.292969 3.363281 53.632812 1.496094 56.015625 C 2.011719 47.144531 4.199219 39.238281 8.5 31.550781 Z M 1.574219 58.214844 C 2.210938 54.714844 5.332031 53.476562 8.160156 51.695312 C 7.734375 54.207031 7.285156 56.402344 7.015625 58.617188 C 6.746094 60.796875 6.652344 62.996094 6.460938 65.503906 C 3.597656 63.65625 0.90625 61.894531 1.574219 58.214844 Z M 9.019531 85.058594 C 8.503906 85.292969 8.449219 84.710938 8.300781 84.4375 C 4.609375 77.703125 2.324219 70.542969 1.65625 62.421875 C 3.050781 64.042969 4.332031 65.121094 5.789062 65.964844 C 6.382812 66.304688 6.523438 66.816406 6.53125 67.417969 C 6.628906 73.0625 7.542969 78.570312 9.230469 83.953125 C 9.359375 84.367188 9.5 84.839844 9.019531 85.058594 Z M 9.699219 82.714844 C 8.570312 78.941406 7.734375 75.121094 7.566406 71.183594 C 7.503906 69.820312 6.988281 68.484375 7.324219 67.003906 C 9.082031 67.738281 10.710938 68.441406 12.351562 69.101562 C 12.90625 69.324219 13.167969 69.71875 13.324219 70.25 C 14.128906 73.03125 15.125 75.746094 16.316406 78.382812 C 16.6875 79.207031 16.550781 79.589844 15.75 79.9375 C 13.953125 80.714844 12.273438 81.695312 10.8125 83.011719 C 10.261719 83.511719 9.992188 83.6875 9.699219 82.714844 Z M 13.785156 92.351562 C 12.492188 90.136719 11.535156 87.765625 10.578125 85.390625 C 10.3125 84.734375 10.445312 84.289062 10.902344 83.839844 C 12.46875 82.296875 14.363281 81.28125 16.324219 80.359375 C 17.296875 79.902344 17.375 80.761719 17.621094 81.257812 C 19.941406 85.949219 22.703125 90.359375 25.976562 94.445312 C 26.894531 95.585938 27.84375 96.695312 29.09375 98.199219 C 23.886719 97.097656 19.261719 95.808594 14.917969 93.613281 C 14.347656 93.328125 14.074219 92.84375 13.785156 92.351562 Z M 16.257812 95.230469 C 19.390625 96.277344 22.492188 97.375 25.703125 98.105469 C 26.421875 98.269531 27.125 98.535156 27.847656 98.59375 C 30.351562 98.800781 31.621094 100.371094 32.464844 102.519531 C 32.679688 103.0625 32.734375 103.554688 32.1875 103.683594 C 30.777344 104.015625 30.332031 106.617188 28.808594 105.761719 C 24.011719 103.070312 19.867188 99.488281 16.257812 95.230469 Z M 29.328125 108.648438 C 24.96875 106.066406 21.398438 102.769531 18.175781 98.867188 C 18.738281 98.761719 18.917969 99.140625 19.144531 99.347656 C 21.976562 101.957031 25.003906 104.308594 28.296875 106.292969 C 29.183594 106.832031 29.511719 107.496094 29.328125 108.648438 Z M 30.015625 107.222656 C 33.417969 109.75 37.503906 110.25 40.492188 113.058594 C 37.316406 113.398438 30.683594 109.898438 30.015625 107.222656 Z M 40.765625 112.335938 C 43.5625 113.066406 46.011719 113.707031 48.460938 114.347656 C 45.875 114.238281 43.171875 114.605469 40.765625 112.335938 Z M 41.714844 111.871094 C 37.566406 110.769531 36.09375 107.230469 34.054688 104.152344 C 33.933594 103.972656 33.855469 103.761719 34.015625 103.578125 C 34.21875 103.339844 34.480469 103.371094 34.726562 103.519531 C 34.859375 103.601562 34.988281 103.695312 35.109375 103.796875 C 40.480469 108.316406 46.476562 111.734375 53.105469 114.128906 C 49.195312 113.910156 45.46875 112.863281 41.714844 111.871094 Z M 51.460938 112.652344 C 45.867188 110.609375 40.832031 107.589844 36.195312 103.867188 C 35.269531 103.128906 35.421875 102.796875 36.433594 102.519531 C 39.359375 101.71875 42.234375 100.597656 45.375 101.136719 C 45.855469 101.21875 46.3125 101.199219 46.585938 101.695312 C 49.027344 106.171875 52.09375 110.164062 55.917969 113.550781 C 55.976562 113.601562 55.953125 113.746094 55.984375 113.941406 C 54.367188 113.824219 52.921875 113.183594 51.460938 112.652344 Z M 58.441406 114.15625 C 57.71875 114.070312 56.839844 113.625 56.699219 112.796875 C 56.113281 109.363281 55.980469 105.882812 55.71875 102.417969 C 55.667969 101.769531 56.042969 101.613281 56.605469 101.636719 C 57.132812 101.660156 57.660156 101.640625 58.183594 101.640625 C 60.480469 101.769531 60.480469 101.769531 60.269531 104.171875 C 60.007812 107.109375 59.660156 110.035156 59.039062 112.917969 C 58.941406 113.371094 59.175781 114.242188 58.441406 114.15625 Z M 59.605469 117.070312 C 59.320312 117.074219 58.789062 117.3125 58.835938 116.652344 C 58.875 116.113281 59.199219 115.941406 59.699219 116.035156 C 60.257812 116.136719 60.792969 116.289062 61.402344 116.765625 C 60.734375 117.1875 60.152344 117.0625 59.605469 117.070312 Z M 74.863281 101.695312 C 75.332031 101.042969 75.835938 100.796875 76.558594 101.289062 C 76.683594 101.375 76.855469 101.390625 77.007812 101.425781 C 80.054688 102.152344 79.992188 102.125 78.828125 104.960938 C 77.726562 107.652344 76.113281 109.640625 73.242188 110.683594 C 69.757812 111.949219 66.34375 113.359375 62.625 113.808594 C 67.542969 110.542969 71.472656 106.390625 74.863281 101.695312 Z M 65.109375 114.476562 C 68.488281 113.328125 71.847656 112.132812 75.144531 110.761719 C 72.828125 114.929688 68.636719 113.753906 65.109375 114.476562 Z M 74.886719 113.792969 C 78.675781 112.632812 82.410156 111.304688 86.085938 109.820312 C 82.761719 112.316406 78.910156 113.296875 74.886719 113.792969 Z M 86.808594 108.488281 C 82.988281 110.359375 79.058594 111.910156 74.777344 112.945312 C 76.175781 110.582031 77.894531 108.929688 80.179688 107.785156 C 81.714844 107.019531 83.074219 105.898438 84.507812 104.933594 C 85.488281 104.269531 86.707031 104.8125 87.5625 106.265625 C 88.183594 107.320312 87.910156 107.949219 86.808594 108.488281 Z M 92.191406 105.320312 C 91.710938 105.644531 91.199219 105.921875 90.738281 106.269531 C 89.566406 107.15625 88.613281 107.558594 87.871094 105.71875 C 87.582031 105.007812 86.730469 104.527344 86.179688 103.980469 C 89.824219 99.917969 93.988281 96.816406 99.515625 96.328125 C 98.871094 98.398438 94.609375 103.691406 92.191406 105.320312 Z M 97.324219 101.195312 C 99.539062 98.644531 100.3125 94.683594 104.355469 94.023438 C 103.839844 95.398438 99.796875 99.664062 97.324219 101.195312 Z M 107.988281 89.570312 C 106.601562 91.9375 104.394531 93.121094 101.980469 94.109375 C 103.492188 90.71875 104.816406 87.347656 105.75 83.828125 C 105.921875 83.179688 106.140625 83.230469 106.601562 83.523438 C 108.75 84.890625 109.261719 87.390625 107.988281 89.570312 Z M 106.796875 82.828125 C 106.316406 82.445312 106.253906 82.085938 106.347656 81.484375 C 107.039062 77.082031 107.921875 72.726562 109.363281 68.5 C 109.527344 68.019531 109.695312 67.570312 110.25 67.304688 C 112.585938 66.191406 114.6875 64.742188 116.675781 62.371094 C 116.046875 71.304688 113.898438 79.265625 109.550781 86.972656 C 109 85.042969 108.046875 83.820312 106.796875 82.828125 Z M 106.796875 82.828125 " fill-opacity="1" fill-rule="nonzero"/></g></g></g></g><g fill="#94bd0f" fill-opacity="1"><g transform="translate(32.314343, 100.240596)"><g><path d="M 29.785156 -40.386719 L 23.222656 -40.386719 C 22.867188 -40.386719 22.667969 -40.132812 22.667969 -39.929688 L 22.667969 -13.476562 C 22.667969 -9.390625 18.929688 -7.421875 15.144531 -7.421875 C 11.410156 -7.421875 8.078125 -9.539062 7.621094 -13.527344 L 7.621094 -33.066406 L 0 -33.066406 L 0 -13.476562 C 0 -5.148438 6.816406 0 15.144531 0 C 23.726562 0 30.289062 -4.945312 30.289062 -13.476562 L 30.289062 -39.929688 C 30.289062 -40.132812 30.035156 -40.386719 29.785156 -40.386719 Z M 29.785156 -40.386719 "/></g></g></g><g fill="#94bd0f" fill-opacity="1"><g transform="translate(64.117479, 100.240596)"><g><path d="M 33.417969 -40.386719 L 26.90625 -40.386719 C 26.554688 -40.386719 26.300781 -40.132812 26.300781 -39.929688 L 26.300781 -13.628906 L 7.671875 -40.234375 C 7.621094 -40.335938 7.320312 -40.386719 7.21875 -40.386719 L 0.503906 -40.386719 C 0.253906 -40.386719 0 -40.132812 0 -39.929688 L 0 -9.691406 L 7.722656 -9.691406 L 7.722656 -26.753906 L 26.300781 -0.152344 C 26.351562 -0.0507812 26.652344 0 26.753906 0 L 33.417969 0 C 33.773438 0 33.972656 -0.253906 33.972656 -0.453125 L 33.972656 -39.929688 C 33.972656 -40.132812 33.773438 -40.386719 33.417969 -40.386719 Z M 33.417969 -40.386719 "/></g></g></g><g fill="#94bd0f" fill-opacity="1"><g transform="translate(99.807666, 100.240596)"><g><path d="M 16.457031 -6.914062 L 12.417969 -6.914062 L 12.417969 -40.386719 L 4.695312 -40.386719 L 4.695312 -6.914062 L 0.554688 -6.914062 C 0.253906 -6.914062 0 -6.714844 0 -6.460938 L 0 -0.453125 C 0 -0.253906 0.253906 0 0.554688 0 L 16.457031 0 C 16.808594 0 17.011719 -0.253906 17.011719 -0.453125 L 17.011719 -6.460938 C 17.011719 -6.714844 16.808594 -6.914062 16.457031 -6.914062 Z M 16.457031 -6.914062 "/></g></g></g></svg>