<svg xmlns="http://www.w3.org/2000/svg" xmlns:xlink="http://www.w3.org/1999/xlink" width="800" zoomAndPan="magnify" viewBox="0 0 600 599.999999" height="800" preserveAspectRatio="xMidYMid meet" version="1.0"><path fill="#3677a3" d="M 263.132812 455.695312 C 263.132812 433.898438 278.742188 418.140625 299.988281 418.140625 C 322.472656 418.140625 336.839844 433.898438 336.839844 455.695312 C 336.839844 476.898438 322.472656 493.25 299.988281 493.25 C 278.121094 493.25 263.132812 476.898438 263.132812 455.695312 Z M 275.964844 364.421875 L 258.617188 148.847656 C 257.753906 138.0625 276.691406 129.273438 299.988281 129.273438 C 323.292969 129.273438 342.21875 138.117188 341.355469 148.847656 L 324.007812 364.421875 C 323.414062 371.742188 312.875 377.511719 299.988281 377.511719 C 287.125 377.511719 276.558594 371.742188 275.964844 364.421875 Z M 275.964844 364.421875 " fill-opacity="1" fill-rule="nonzero"/><path fill="#3677a3" d="M 299.988281 599.972656 C 134.570312 599.972656 0 465.402344 0 299.988281 C 0 134.570312 134.570312 0 299.988281 0 C 465.402344 0 599.972656 134.570312 599.972656 299.988281 C 599.972656 465.402344 465.402344 599.972656 299.988281 599.972656 Z M 299.988281 51.144531 C 162.773438 51.144531 51.144531 162.773438 51.144531 299.988281 C 51.144531 437.199219 162.773438 548.828125 299.988281 548.828125 C 437.199219 548.828125 548.828125 437.199219 548.828125 299.988281 C 548.828125 162.773438 437.199219 51.144531 299.988281 51.144531 Z M 299.988281 51.144531 " fill-opacity="1" fill-rule="nonzero"/></svg>